<?xml version="1.0" encoding="UTF-8"?>
<svg id="Layer_1" xmlns="http://www.w3.org/2000/svg" version="1.1" viewBox="0 0 1447.03 521">
  <!-- Generator: Adobe Illustrator 30.1.0, SVG Export Plug-In . SVG Version: 2.1.1 Build 136)  -->
  <path d="M237,0c25.15,3.94,47.28,15.77,65.48,34.56,37.06,38.24,55.79,94.12,59.13,146.64,3.04,47.85-10.66,100-31.77,142.5-13.53,27.25-34.63,54.93-56.98,75.24-51.98,47.24-120.02,74.49-187.71,91.07-27.4,6.71-46.99,4.45-73.9-1.16-4.73-.98-8.38-2.43-11.26-5.85v-9c10.11-18.34,22.09-2.15,50.92,3.01,4.21.75,8.61-.44,12.52-1.59,56.59-16.63,118.01-38.08,163.73-76.2,45.48-37.92,67.9-88.11,86.96-143.05,6.6-19.01,11.16-50.62,9.65-70.18l-1.15-14.87c-3.36-43.51-21.15-94.82-52.77-125.95-23.86-23.49-55.31-33.25-87.55-20.84-38.6,14.86-72.15,52.55-87.25,90.69-7.92,20.02-9.41,36.12-7.56,57.49,1.97,22.79,8.73,46.93,32.54,55.75l23.68-70.51c3.71-11.06,8.78-20.76,13.82-31.23,9-18.71,24.39-41.22,40.41-54.54,5.68-4.73,19.12-13.36,26.22-13.62l20.62-.76c4.77-.18,18.99-9.12,28.22,2.87,5.15,6.69,4.57,18.18-2.54,20.61-2.07.71-6.05.17-8.03-1.35l-11.45-8.79c-3.24-2.49-7.22-2.22-10.89-.89-31.05,11.3-52.54,39.31-63.45,69.61l-17.98,49.97-13.74,44.54,16.08-1.49c22.08-2.05,41.71-14.09,56.54-29.99,19.16-20.55,16.75-39.46,29.51-46.49,2.3-1.27,6.39-1.42,8.24-.27,10.64,6.65,1.9,32.51-9.08,40.31-29.61,30.87-61.75,54.81-106.41,57.32-10.13,40.59-17.49,80.44-23.86,121.44,4.11,6.68,13.9,8.02,15.89,17.31.49,2.27-2.84,5.55-5.08,6.39-14.1,5.25-26.36,12.06-39.11,19.93-10.89,6.72-21.94,12.85-34.75,15.06-5.28.91-13.14,2.01-17.06-1.5-4.76-4.26-4.67-13.13.5-16.76,4.45-3.12,10.35-3.15,15.46-4.83,16.61-5.48,21.88-19.75,26.13-34.87l34.6-123.09c-29.23-3.01-52.88-13.78-58.59-44.69-2.15-11.65-2.79-23.53-1.33-35.36,5.32-43.01,25.81-81.78,54.45-113.46,4.8-5.31,9.11-10.03,14.45-14.74C149.32,19.89,174.95,6.32,211,0h26Z"/>
  <path d="M436,521h-8c-10.75-1.94-21.32-3.27-31.17-7.97-5.15-2.45-6.25-21.67,1.74-25.57,5.88-2.86,29.63,7.64,56.44,4.35,40.33-4.95,81.73-37.26,110.41-64.33,5.16-4.88,9.79-9.4,14.6-14.54l11.6-12.41c18.43-19.73,34.64-40.93,48.57-64.21l23.24-38.82,12.83-24.45c21.7-41.35,39.43-84.19,55.37-128.36l46.9-129.91c1.45-4.02,6.49-7.54,10.25-6.6s5.75,6.11,5.33,9.92l-8.82,80-1.04,12.9-1.03,13-.96,12.01-1.05,13-.94,12.01-.97,15.01-.83,18.45-.97,19.16-1.11,20.88-.93,40.87c-.25,11.09-.56,21.21-.27,33.61,16.9-25.77,32.73-52.37,46.95-80.78l44.3-88.52,10.41-20.83c15.88-31.77,32.53-62.4,51.29-92.59,1.35-2.17,3.17-3.67,5.22-3.49,1.34.12,3.77,2.69,3.54,4.56l-21.49,178.06-17.53,141.76c4.19,1.77,7.17,4.44,7.3,7.36.15,3.44-1.37,6.58-3.76,8.79l-9.46,8.74-17.93,16.95-14.02,13.01-14.01,12.99-14,12.99-13.01,12-12.92,12.08-8.96,8.21c-.87.8-3.19,1.84-4.22,1.43-5-2.01-6.01-17.97,5.32-27.45l17.43-14.58c4.21-3.52,8.07-7.34,11.83-11.16,7.7-7.8,24.12-29.05,26.66-37.94,5.38-18.82,9.69-37.01,13.03-56.21l10.51-60.51,7.5-58.84,1.09-13.02.97-11.01,1.05-11.99c.41-4.65.91-8.88.28-13.15l-34.69,63.03-42.35,80.53-19.36,37.8-20.98,40.97-16.36,31.64-15.63,30.51c-1.68,3.28-4.27,7.82-5.9,10.61-3.99,1.43-5.9-3.76-5.53-7.04l9.21-81.89,7.01-70.94.74-11.05,1.08-15.95.88-13.07,1.07-15.94.94-16.05.55-49.9c.05-4.27,1.4-8.37.18-12.24l-42.1,95.46c-18.98,43.03-46.31,94.97-74.71,132.31-9.44,12.41-18.42,24.44-29.17,35.91-11.71,12.49-23.23,24.35-35.97,35.89-34.02,30.85-85.75,69.32-131.48,74.56Z"/>
  <path d="M1285.5,353.49c-7.43,4.7-25.55,15.71-32.67,5.73-5.17-7.24-7.85-14.66-10.97-23.63-9.9,9.7-11.75,13.42-22.35,23.18-2.12,1.95-8.82,1.98-11.1-.14-11.72-10.91-5.72-32.8-2.04-47.24l9.63-37.74-24.48,21c-9.78,8.38-20.61,14.94-31.43,22.94,6.27,26.35,30.04,75.39,48.3,95.05,7.04,7.58,15.74,12.54,25.65,16.64,3,1.24,7.54-3.07,9.58-5.39,6.35-7.22,16.35-5.83,19.83-2.67,4.61,4.19-.79,14.4-5.14,17.77-21.5,16.67-50.16-2.14-65.17-19.23-15.69-17.87-27.84-38.06-36.44-60.33l-12.01-31.1c-3.53-9.16-8.16-17.42-13.17-25.38-11.01,24.16-19.07,43.5-32.73,65.81-5.7,1.77-16.55-3.9-14.92-10.16,2.47-7.98,8.34-14.98,12.64-22.18,10.35-17.36,20.06-34.06,25.13-53.82l18.6-72.39c12.73-49.55,27.3-112.72,69.47-145.41,10.23-7.93,20.3-12.81,32.65-16.56,6.01-1.82,15.74-5.5,20.27-.23.92,1.07.54,5.48-.97,5.91l-16.21,4.64c-12.5,3.58-21.98,11.84-30.73,21.26-12.75,13.73-21.26,29.9-28.76,47.23-11.61,26.8-20.03,53.84-27.88,82.09l-20.86,75c14.25-.97,30.06-13.77,28.81-27.05-.79-8.41,1.79-16.51,8.49-21.49,4.6-3.42,11.55-3.9,15.4.41,4.08,4.58,2.92,10.61,2.45,16.11-1.62,19.16-20,28.65-35.22,37.32-.38,5.14-.18,10.24.96,15.6,10.46-7.11,23.37-15.82,32.46-24.53l18.95-18.18c3.59-3.44,7.11-7.34,10.59-11.2l7.63-8.45c29.9-76.13,53.37-137.26,108.96-198.86,6.61-7.32,15.45-13.22,24.86-13.65,7.53-.34,12.43,4.31,13.09,11.3,1.05,11.17.16,17.91-4.32,28.93-7.68,18.89-14.97,34.93-25.68,52.36-13.64,22.21-28.89,42.26-46.25,61.69l-56.71,63.46c-7.83,21.83-15.25,45.03-12.07,68.42.66,4.86,4.48,8.72,10.13,8.94.5-7.44-.26-15.24.77-22.73,2.74-19.73,10.76-37.51,24.1-51.78,9.61-10.29,20.51-17.98,34.49-20.75,6.87-1.36,15.38-2.08,20.85,3.02,5.87,5.48,6.09,14.29,5.08,22.07-4.45,34.26-39.23,54.65-65.93,69.56,1.96,5.74,4.28,11.99,10.38,13.9,10.69,3.35,32.9-12.84,42.8-19.25,3.65-2.36,7.98-5.11,11.24-7.5l23.74-45.09c-4.21-6.5-2.54-13.38,2.92-18.65,10.36-9.99,17.54-8.08,32.82-7.82-.53,3.31-1.46,5.99-3.35,8.48-14.77,19.53-27,40.04-38.15,61.75-2.28,4.43-10.55,19.4-5.11,23.48,1.3.98,4.93,1.18,6.57.21,8.84-5.24,16.59-10.45,24.93-16.26l21.79-15.16c11.24-18.94,20.84-37.77,33.26-55.81,4.28-6.22,15.95-7.13,21.82-4.92,3.69,1.39,2.12,6.96.66,9.46l-32.09,54.84-22.09,35.09-62.27,95.47c-4.66,7.14-8.91,13.42-14.28,19.91-19.77,23.93-44.9,42.54-74.33,52.54-6.75,2.29-13.03,3.78-19.7,2.13-3.57-.88-5.84-4.65-4.4-8.08l3.82-9.09c2.33-5.55,7.31-5.76,12.4-4.78,24.75,4.78,46.95-19.69,62.61-36.36,12.22-13.02,29.12-37.16,38.27-52.77l39.84-68.03c.23-.4.78-1.46.97-1.83.18-.34-1.25-.09-1.57.17-12.36,9.66-24.7,19.36-37.8,28.13-4.09,2.73-9.83,1.02-13.6-1.33-8.32-5.18-6.43-16.77-5.18-25.57-9.97,7.86-19.92,14.88-30.51,21.59ZM1252.66,216.83c5.61-3.71,8.32-7.74,12.25-12.03,34.92-37.32,74.58-91.98,88.24-141.71,1.05-3.81,1.46-11.16-3.38-11.75-5.49-.66-10.72,5.35-13.65,9.78l-28.25,42.6c-11.27,16.99-28.5,50.66-37.34,69.69-6.7,14.42-12.07,28.56-17.87,43.42ZM1292.15,285.14c6.76-7.79,18.9-28.28,10.3-36.35-5.36-5.02-12.92-.51-17.3,3.1-19.52,16.13-27.27,34.49-29.15,60.96,13.18-7.38,25.85-15.85,36.15-27.71Z"/>
  <path d="M599.6,338.72c7.34,1.34-20.47,26.17-33.78,29.14-3.59.8-6.19-6.72-4.97-10.07l25.31-69.58c1.08-2.96,1.22-6.53-.15-9.3-12.02,2.72-19.33,14.83-24.51,24.59l-12.48,23.53c-4.89,9.22-7.58,19.41-14.58,27.68-5.37,6.35-16.9,11.39-25.01,10.72-6.74-.56-4.69-10.4-2.05-13.83,7.95-10.33,13.42-20.77,19.03-32.22,2.18-4.45,3.94-8.13,3.63-13.68-3.24.65-5.8,2.12-7.86,4.4l-9.06,10.04-6.5,7.47c-11.96,13.74-26.35,26.29-41.21,36.87-2.39,1.7-6.79,2.15-8.86.69-2.59-1.83-3.77-4.67-3.77-8.09-8.06,5.14-18.53,8.81-27.83,6.19-10.54-2.97-15.83-11.59-17.2-21.33-10.72,10.49-23.18,19.46-37.27,20.78-7.79.72-13.68-4.42-16.91-10.21-4.8-8.59-5.38-17.8-5.94-27.44-.63-10.78.82-20.49,4.47-30.98,7.61-21.84,19.57-43.76,39.22-56.85,5.96-3.97,13.4-5.67,20.59-6.4,6.82-.69,12.19,3.18,13.5,9.79,2.27,11.52-.45,22.27-4.47,33.35-9.57,26.35-35.41,43.79-57.85,57.6.43,5.75,2.46,11.22,6.4,13.57,4.84,2.88,10.21,2.36,15.48-.43,34.39-18.18,18.87-15.36,35.55-42.15,9.54-15.32,19.76-29.73,33.6-41.48,19.41-16.49,44.56-28.41,70.78-25.71,7.9,3.89-8.8,30.94-12.53,38l-22.13,41.87c-1.73,3.27-1.48,6.52,1.36,8.78l16.44-16.98,12.95-14.03,10.56-11.5,38.62-43.31c1.68-1.89,6.4-4.62,8.24-2.71,3.13,3.26,1.57,9.16,0,12.74l-6.37,14.46c7.34-5.2,13.28-11,18.7-17.9,3.22-4.1,7.15-5.85,12.49-4.56,14.57,3.52,9.62,24.19,6.51,34.46-5.56,18.37-11.43,35.89-18.17,53.9-.76,2.04-1.62,4.79-.8,6.03,1.29,1.96,3.87,3.2,5.99,3.59l2.86.52ZM448.97,343.51c13.23-15.6,17.45-19.96,27.81-37.6,8.5-14.47,14.18-29.48,18.63-45.66.26-.94,0-3.04-.24-3.92-1.26-4.68-10.89-.04-14.06,1.72-9.04,5.01-17.06,10.36-24.62,17.49-15.27,14.4-25.44,33.22-27.63,54.34-.73,7.02,2.81,15.11,10.06,16.98,2.87.74,7.73-.62,10.04-3.35ZM403.39,261.13c-.78-1.65-1.11-3.87-2.16-3.96l-4.31-.37c-6.17,3.25-10.29,8.1-14.86,13.3-12.39,14.1-19.84,31.52-19.88,49.81,22.14-11.92,41.31-33.81,41.22-58.78Z"/>
  <path d="M1071.83,286.78c-10.24,7.69-17.57,19.65-23.07,31.13-7.02,14.65-1.68,24.15-10.23,37.77-4.98,7.94-18.35,10.1-24.19,2.1-6.12-8.39,4.53-20.32,9.55-25.92,4.37-4.87,9.31-9.53,10.71-16.18l5.74-27.37c-4.24,2.78-6.7,5.32-9.43,8.59l-20.07,23.95c-3.37,4.02-6.85,7.66-10.56,11.47-16.48,16.9-36.51,32.62-61.37,31.12-18.06-1.09-30.5-9.27-33.4-28.1-1.54-10,.77-20.35,5.34-29.52,20.09-40.27,60.11-65.14,102.18-77.89,3.48-1.05,7.87-.31,9.97,1.76,2.37,2.34,4.34,7.75,2.68,10.98l-22.44,43.44-15.78,32.43c-1.34,2.75-1.76,5.93-.32,8.8,5.53-3.73,8.92-8.12,13.24-13.09l68.38-78.58c2.81-3.23,11.9,2.29,10.31,6.15l-15.9,38.58c10.52-2.3,27.09-22.64,33.13-30.11,4.09-5.05,8.05-9.79,13.3-13.7,1.91-1.42,7.13-.82,8.49.76,1.61,1.88,2.17,5.47,1.69,8.22-1.56,9.03-6.22,44.76-16.29,45.67s-5.31-11.23-11.62-11.46c-7.77-.28-14.09,4.54-20.03,9.01ZM953.83,338.72c19.49-25.97,27.18-46.68,37.68-77.31,1.47-4.29,1.79-8.31,1.22-13.08-4.41-.92-7.5.13-11.01,2.39-13.53,8.71-27.1,17.07-37.74,29.07-9.44,10.65-15.86,23-17.01,37.05-.75,9.18,1.96,17.73,8.75,23.35,5.65,4.67,13.5,4.69,18.12-1.47Z"/>
</svg>