<?xml version="1.0" encoding="UTF-8"?>
<svg id="Layer_1" xmlns="http://www.w3.org/2000/svg" version="1.1" viewBox="0 0 390.6 88.9">
  <!-- Generator: Adobe Illustrator 30.1.0, SVG Export Plug-In . SVG Version: 2.1.1 Build 136)  -->
  <path d="M244.37,61.56c-8.57.36-16.23.66-23.94-.43-3.61-.51-4.51-.71-8.13.08s-20.52,1.83-22.32-2.07c-.46-1,.02-3.25.65-4.26l7.48-11.94c-10.65,3.47-15.49,11.55-22.56,18.79-4.97.1-11.49.14-16.24-.05-.96-.04-2.99-.87-3.88-.52-5.42,2.16-11.9-.31-16.95-.24-6.4.09-23.03,6.18-29.82-2.56-1.13-1.46-1.1-5.59.05-7.27l13.7-20.05,17.6.11-13.33,20.01c5.48,1.78,9.83-1.13,12.48-4.94l10.53-15.12,17.57.06-13.01,19.97c5.69,1.23,11.13-1.05,14.31-5.63l9.98-14.37,16.97-.14-1.46,3.93c4.96-1.02,20.65-7.72,24.44-2.19.9,1.31.81,5.23-.13,6.7l-7.67,11.95c4.77.99,9.91-1.83,12.77-5.99l15.9-23.14,17.5.16-19.26,28.95c4.82.52,8.01.26,12-.58.68-7.33,4.46-12.49,10.38-15.9,10.42-6.01,21.49-5,32.77-1.87,5.18,1.44,11.89.26,17.6.57,3.92.21,7.79-1.99,11.31-2.44,5.21-.67,10.84-.4,15.68-.33l-.44,2.94c7.35-2.3,22.37-7.37,26.43,1.19,1.14,2.41.94,7.24-1.02,9.11l-8,7.64,16.32.33c-1.79,4.01-4.59,7.74-7.89,11.11l-42.91-.09,7.47-11.29c8.62.85,17.19-1.83,20.3-10.48-9.71-.24-19.14,4.12-24.51,11.83l-14.22,20.4-17.8-.05,20.4-29.94-10.65-.17c-.22,5.45-2.02,9.47-6.15,12.39-11.49,8.14-31.23,11.32-42.65.48-1.64,1.13-5.3,5.25-7.65,5.35ZM286.38,44.09l-12.35-2.13c-3.9-.67-10.66,5.25-8.02,8.48,6.23,4.91,18.43.92,20.37-6.34Z"/>
  <path d="M33.35,58l15.91-25.11,18.55.16-12.08,19.45c9.39.03,39.67-11.19,39.48-19.62-.03-1.31-3.13-3.09-4.63-3.1l-63.41-.28c4.41-4.22,9.65-10.72,15.79-11.17,15.62-1.15,30.99-.49,46.76-.43,8.19.03,22.96,3.68,24.46,13.13,1.42,8.9-9.17,16.06-16.87,20.15-17.97,9.52-37.49,14.61-58,15.2-1.82.05-4.13-.67-5.07-1.52-1.11-.98-1.8-5.41-.89-6.85Z"/>
  <path d="M200.82,88.9c-.84-2.56-.84-5.43-.29-8.54l140.71-.04c18.03,0,38.08-12.14,40.84-31.4,2.73-.19,5.73-.18,8.51.03-3.14,24.58-26.49,39.92-49.42,39.92l-140.36.03Z"/>
  <path d="M189.63,80.36c.49,3,.49,5.57.12,8.54l-141.1-.05c-22.16,0-45.79-15.76-48.65-39.95l8.31-.2c3.05,19.08,21.47,31.61,40.13,31.62l141.2.04Z"/>
  <path d="M382.34,40.36c-3.48-20.16-22.67-31.84-42.07-31.84h-139.72c-.45-3.06-.45-5.32-.02-8.51l142.74.08c21.79.01,45.18,17.26,47.3,39.86l-8.22.41Z"/>
  <path d="M48.84,8.54c-19.3,0-37.68,12.71-40.44,31.63l-8.28-.02C2.95,15.4,25.94,0,50.43,0l139.5.03-.08,8.48-141.01.03Z"/>
</svg>