<?xml version="1.0" encoding="UTF-8"?>
<svg id="Layer_1" xmlns="http://www.w3.org/2000/svg" version="1.1" viewBox="0 0 332.04 63.84">
  <!-- Generator: Adobe Illustrator 30.1.0, SVG Export Plug-In . SVG Version: 2.1.1 Build 136)  -->
  <defs>
    <style>
      .st0 {
        fill: #fff;
      }
    </style>
  </defs>
  <path d="M13.8,63.45l.02-11.45,12.24-.29.32-5.99c-4.62,2.97-8.4,3.32-13.38,3.34C5.62,49.09-.03,45.31,0,37.47l.05-12.86c.03-7.74,5.83-11.67,13.04-11.82,4.63-.09,9.01.51,12.92,2.6l1.29-2.5,12.9.09-.22,40.35c-.04,6.44-5.44,10.18-10.83,10.16l-15.35-.05ZM26.52,36.46l-.47-10.73-11.73.14.14,10.63,12.07-.03Z"/>
  <path d="M201.75,48.07c-6.72,1.1-22.21,2.56-23.05-6.29-.7-7.32-.81-14.34,0-21.35,1.29-11.06,19.13-8.31,25.54-5.42l.26-14.81,13.64.03.17,35.3c3.45,3.86,2.17,8.27,1.65,13.31-6.64-.04-10.62,1.35-14.94-2.95-.58-.58-2.45,2.06-3.27,2.19ZM203.75,25.54h-12.02v11h12.02v-11Z"/>
  <path d="M263.16,38.58c-.41,12.8-18.22,10.66-28.1,9.99-12.78-.86-12.05-16.86-10.8-25.88,1.73-12.39,18.67-10.26,29.19-9.66,12.16.69,10,16.47,9.71,25.55ZM249.8,36.29l-.15-10.61-11.94-.06.18,10.69,11.91-.02Z"/>
  <path d="M127.24,48.65l-12.11.33c-.79.02-2.63-2.36-2.66-2.61-6.56,4.29-24.66,4.08-25.01-6.31l-.47-14.02c-.5-.51-3.25-2.04-3.25-2.79l.04-10.29c4.12-.03,6.94-.06,10.71.33,3.09.31,6.4,5.16,6.47,8.07l.38,14.7,11.57-.15.07-23,14.19.04.04,35.7Z"/>
  <path d="M175.3,42.96l-.43,4.92c-.1,1.15-3.59.76-4.99.91-5.72.61-11.32-2.8-11.34-9.17l-.04-14-12.3-.06-.03,23.32-14.21-.11.05-35.72,11.84-.25c.65-.01,2.37,1.71,2.85,2.37,7.25-3.72,24.8-3.92,25.06,7.24l.3,12.89c2.64,1.55,3.55,4.06,3.23,7.67Z"/>
  <path d="M323.99,33.98l-.15,19.45c-.05,6.69-5.36,10.5-11.89,10.41-1.23-.02-3.41-.16-4.36-.3-.59-.09-3.07-11.55,2.5-13.02l-.25-16.02c-1.23-1.02-2.9-2.55-3.48-3.39-.7-1,3.31-2.98,3.36-4.21l.7-17.86c.18-4.68,4.14-8.57,8.48-8.69l12.48-.35.41,12.69-7.8.54v14.65s7.07.47,7.07.47c1.08.07,1.11,3.91.8,5.13l-7.87.51Z"/>
  <path d="M291.15,32.52l-.59-7.05-8.39.16-.08,23.22-14.18-.06-.13-35.62,11.26-.44c.85-.03,3.03,1.31,3.68,1.86,5.95-1.67,14.46-3.76,19.9,1.59,1.76,4.32,1.18,10.9.88,15.67l-12.36.66Z"/>
  <path d="M67.83,32.46l-.71-6.46-8.49.19-.31,22.68-13.66-.11.03-35.93,12.37-.15,2.31,2.6c6.39-3.1,14.34-3.91,19.92,1.25,1.8,4.07,1.11,10.78.86,15.75l-12.32.18Z"/>
  <polygon class="st0" points="26.52 36.46 14.45 36.5 14.31 25.87 26.05 25.73 26.52 36.46"/>
</svg>