<?xml version="1.0" encoding="UTF-8"?>
<svg id="Layer_1" xmlns="http://www.w3.org/2000/svg" version="1.1" viewBox="0 0 318.59 57.16">
  <!-- Generator: Adobe Illustrator 30.1.0, SVG Export Plug-In . SVG Version: 2.1.1 Build 136)  -->
  <path d="M41.11,11.99l-17.64,31.44c-.47.84-1.92,1.81-2.49,2.11s-1.89-1.7-1.91-2.41l-.98-31.29c-3.06,8.62-5.41,16.66-7.97,26.33-.4,1.53,1.46,3.97,2.51,4.63s2.04,1.35,2.58,1.75-2.11,1.61-2.89,1.57l-12.32-.7c2.83-2.36,3.8-3.01,6.22-4.69L16.8,5.19,11.75.73c6.22-.4,10.1-.44,15.32-.28l1.06,28.78L43.76.52c4.76-.27,8.08-.26,13.82.36-2.64,2.29-3.28,2.67-5.4,4.03l-7.21,35.4,4.58,5.55-20.02-.05c2.24-2.56,3.32-3.06,5.57-4.23,2.17-9.23,4.16-17.66,6-29.56Z"/>
  <path d="M178.26,29.25c.55,4.35-.05,9-2.75,12.21-2.23,2.65-6.76,4.78-10.8,4.7l-24.92-.53c2.39-2.31,3.59-3.14,5.69-4.65l7.94-33.08c.25-1.03.06-3.44-.6-4.09l-3.7-3.68L174.48,0c3.18-.02,6.28,4.17,6.49,6.96.87,8.38-4.95,12.95-13.14,14.11,5.39,1.29,9.09,2.3,10.44,8.18ZM171.38,9.46c.23-2.21-.68-4.9-1.85-5.67s-5.37-.84-5.73.7l-3.54,15.01c6.67,1.42,10.42-3.28,11.13-10.03ZM160.98,42.94c6.18-1.48,8.07-7.36,7.71-12.9-.13-2.01-1.38-4.91-2.69-5.83-1.43-1-5.12-1.24-6.8-.64l-3.42,14.71c-.26,1.13.19,3.53.96,4.18.62.52,3.15.74,4.24.47Z"/>
  <rect x=".59" y="55.16" width="318" height="2"/>
  <path d="M231.66,36.79c-4.12,2.68-9.02,2.89-12.97,1.06-3.32-1.53-6.09-5.57-6.91-9.81-1.95-10.07,3.78-19.79,13.82-21.88,5.19-1.08,9.99,1.17,12.42,5.86,4.28,8.29,2.04,19.32-6.35,24.77ZM229.67,7.73c-10.49-2.43-16.36,27.75-7.39,29.55,10.39,2.09,15.71-27.62,7.39-29.55Z"/>
  <path d="M201.58,36.61c-4.04,2.76-9.04,3.1-12.95,1.4-3.52-1.53-6.37-5.53-7.22-9.83-1.96-9.98,3.48-19.57,13.27-21.93,5.75-1.39,10.99,1.22,13.39,6.68,3.57,8.09,1.35,18.32-6.51,23.68ZM198.87,7.64c-10.72-1.1-15.69,28.59-6.68,29.71,10.55,1.31,15.41-28.81,6.68-29.71Z"/>
  <path d="M259.52,27.83l-3.3-3.89,13.74.02c-8.98,7.74-.89,13.78-11.78,14.95-5.05.54-10.45-.35-13.64-4.25-2.95-3.61-3.69-9.32-1.63-14.24,4.35-10.43,15.89-16.22,27.22-13.76-.23,2.96-.88,5.2-2.51,8.15l-1.74-6.74c-11.97.17-19.73,13.44-16.07,24.95.8,2.52,4.88,4.99,7.11,3.39l2.6-8.58Z"/>
  <path d="M63.59,22.66l-3.12,12.59c5.47,2.87,9.73.44,12.84-5.2.7,2.27-.02,6.18-1.57,8.59l-22.49-.23c2.62-2.24,4.48-3.73,5.06-6.25l5.01-21.92-3.1-3.6,21.68-.2-1.98,8.13c-1.63-2.8-2.39-4.52-3.52-5.54s-5.46-.48-5.82.92l-2.51,9.75c4.3,1.75,5.83-.39,9.56-4.03-.94,4.84-1.69,8.14-2.85,12.66l-1.69-4.57c-.39-1.05-3.11-1.23-5.49-1.12Z"/>
  <path d="M299.72,23.56l-2.73,11.69c5.91,2.97,8.87.17,13.23-4.83l-1.55,8.25-23.18-.34c2.49-2.04,4.54-3.54,4.87-4.93l4.99-20.74c.34-1.43-.74-3.59-2.22-6.06l21.3-.11-2.11,8.08-2.74-5c-.63-1.15-4.2-.87-6.13-.66l-2.89,10.6c2.71,2.14,6.15.1,9.14-3.45-.46,4.14-1.31,8.13-2.42,12.41l-2.16-5.21c-.5-1.21-5.11-.97-5.41.31Z"/>
  <path d="M113.29,32.41l-.54-3.99c-.1-.72-2.03-.69-3.23-.82-3.18-.34-5.41.92-6.42,3.88-.38,1.11-1.33,3.02-.76,3.6l3.11,3.12-11.18.2c1.59-1.49,3.89-2.76,4.66-4.06l17.83-30.07c3.76,10.84,1.08,20.54,3.07,30.65l2.61,3.52-13.1.02c2.37-2.17,4.23-3.99,3.95-6.04ZM112.65,24.05c.07-2.98-.22-6.55-.35-9.18l-5.47,10.02c1.63.7,5.78.56,5.82-.84Z"/>
  <path d="M93.98,22.38c2.88,3.98,2.48,8.78-.1,12.38-4.76,6.64-16.55,4.56-16.99.98-.23-1.89.62-5.08,1.43-6.32,1.21,2.89,1.94,5.32,2.95,6.62s4.73.93,6.14.19c1.58-.84,3.09-5.32,2.05-6.8l-5.91-8.34c-2.53-3.58-2.51-8.41-.08-11.58,4.72-6.17,15.21-2.88,15.3.14.04,1.4-1.28,4.67-1.87,4.48l-2.59-5.25c-.61-1.24-4.18-.63-5.24.24s-1.63,4.22-.74,5.45l5.64,7.8Z"/>
  <rect x="178.59" y="42.16" width="126.5" height="2"/>
  <rect x="52.5" y="42.42" width="82.59" height="2.82"/>
  <path d="M282.44,38.56l-14.11-.21c1.3-1.31,4.17-2.9,4.5-4.29l5.49-22.85c.22-.93-1.38-3.18-2.17-4.65l12.86.09-3.63,3.43-5.69,23.35c-.26,1.09,1.19,2.9,2.76,5.14Z"/>
  <path d="M124.75,40.67c5.81-12.71,12.34-24.11,20.75-35.65-5.68,12.36-12.67,24.21-20.75,35.65Z"/>
</svg>