<?xml version="1.0" encoding="UTF-8"?>
<svg id="Layer_1" xmlns="http://www.w3.org/2000/svg" version="1.1" viewBox="0 0 447.21 163.3">
  <!-- Generator: Adobe Illustrator 30.1.0, SVG Export Plug-In . SVG Version: 2.1.1 Build 136)  -->
  <path d="M330.04,111.89c-15.3-10.35-31.7-17.72-48.16-25.96l-9.96,3.87c2.46-2.44,4.12-3.34,7.28-5.25l-35.3-14.97,2.23,17.93c-2.96,4.94-27.31,17.78-28.94,8.56l-4.39-24.93c-4.38-.6-8.79-.45-13.2.97-3.28,15.78-9.28,30.46-17.27,44.31-.49.84-2.89,1.95-3.85,2.03-1.16.09-3.31-1.89-3.51-3.04l-2.48-14.47c-5.39,10.75-10.5,25.06-23.98,27.74-14.44,2.87-18.45-22.07-10.03-39.74,7.2-15.12,22.47-24.07,39.64-21.6.42,1.61-.17,4.66-1.1,6.23-11.28-.58-21.66,3.05-28.48,11.04-7.03,8.22-10.61,19.89-7.5,30.41,1.38,4.67,6.32,6.75,10.39,4.59,13.16-6.97,16.49-22.14,18.58-36.45l6.55-.38,1.69,18.25c.21,2.25,1.12,4.72,2.7,6.72,6.51-14.39,11.29-27.69,13.81-42.43l22.57-.03,4.73,23.8c1.47,7.4,14.05.72,17.82-1.99-3.22-27.65-6.69-53.85-5.06-81.98.73-1.49,6.12-1.63,6.18.11l1.78,52.49c11.38-9.2,21.09-17.71,32.76-26.06,2.14-1.53,5.73,2.2,6.15,4.66-12.19,8.87-24.27,16.29-36.35,27.36l39.79,16.8c5-3.62,9.96-7.83,14.7-12.32-10.74-7.18-13.36-19.93-6.43-30.49,4.35-6.63,11.1-11.48,19.32-10.99,4.82.29,9.55,2.87,11.5,6.12,7.02,11.67-5.77,22.38-13.04,31.97,12.61,2.33,28.79-12.96,32.95-25.79,7.66-.3,15.49.61,22.93,3.29-.63,9.84,1.2,19.15,8.26,25.66,6.36,5.87,15.13,6.82,23.63,6.19,14.14-1.03,25.34-7.85,38.23-14.67-7.24,7.75-16.48,12.87-26.06,17.01s-20.15,4.92-30,1.71c-13.57-4.43-21.58-16.33-21.39-30.97-2.66-1.68-8.41-2.78-11.45-1.72-12.01,15.57-22.25,25.04-43.17,24.81l-15.98,11.59,38.49,18.69c6.74,3.27,12.14,7.31,18.52,11.68h100.99s.1,51.06.1,51.06l-208.7.04-.12-51.09,91.64-.32ZM304.99,62.05c7.22-4.57,18.67-18.98,13.94-25.95-1.03-1.51-3.86-3.43-6.09-3.62-6.3-.53-12.04,3.31-14.86,7.58-3.54,5.34-4.12,11.75-1.19,17.49,1.07,2.09,5.47,6.22,8.2,4.5ZM444.96,114.27h-204.47v47h204.47v-47Z"/>
  <path d="M97.3,56.96l3.7,37.81c19.42-11.67,41.3-31.21,43.87-54.63-1.4-19.62-17.78-28.81-35.66-31.27C75.48,4.22,34.31,11.92,0,16.14V7.63S55.94,1.55,55.94,1.55c22.99-2.5,54.73-3.08,75.55,6.94,14.21,6.84,21.48,21.07,19.18,36.68-3.95,23.48-28.91,45.65-47.98,59.26,2.71,19.38,7.33,37.34,12.9,55.62l-9.44-.11c-9.1-33.59-14.46-66.76-15.52-101.83,1.85-1.35,4.43-1.57,6.67-1.17Z"/>
  <path d="M297.39,119.18c5.89,8.67,5.96,23.28,5.01,33.86-4.54,2.23-11.51,2.1-16.54.27-.99-11.34-1.32-24.03,4.67-34.27l-.73,28.28c-.04,1.48,3.31,3.18,4.64,3s3.9-2.43,3.85-3.79l-.9-27.36Z"/>
  <path d="M405.78,153.3c1.21-7.26-1.9-16.74-7.09-22.68,2.37-2.76,3.63-4.33,5.21-7.68-2.33-.53-4.51-.59-6.67-.3l1.32,30.52c.06,1.48-4.28,1.55-5.3.59l1.46-33.69c3.04-.69,12.86-1.04,12.75,2.93-.02.84-.9,2.61-1.65,3.19l-5.24,3.98c7.76,5.86,10.75,16.13,8.66,24-.21.79-3.65.33-3.45-.86Z"/>
  <path d="M375.38,130.04c-6.47,1.25-7.97,6.96-7.98,12.24l-.02,11.21c0,.89-3.58,1.02-4.02.39-1.08-5.72,2.34-33.92,9.15-34.3,7.43-.42,8.33,27.55,8.46,33.77.03,1.54-4.6,1.19-4.5.06l-1.09-23.36ZM374.77,128.39c-.89-2.92-1.22-3.86-2.55-6.97l-3.36,8.41,5.91-1.43Z"/>
  <path d="M266.95,131.01c-.29-.92-3.71-1.94-4.94-2.43.53-1.37,4.72-2.09,6.54-.94,2.61,8.11,3,17.24,1.95,26.08-5.31,1.01-9.82,1.02-15.45.15-2.37-5.8.54-44.26,12.16-32.43l-5.76.33c-3.39,9.06-3.95,18.06-2.9,27.49,3.39.34,6.3.32,9.04-.82.18-4.97-.1-12.44-.64-17.45Z"/>
  <path d="M346.27,126.67l1.23,27.05c-1.19.26-3.1.46-5.23.59l.81-28.8-8.79-5.05c7.03-.53,12.61-.43,19.76-.25l-1.32,1.78-9.77.11c.84,1.09,3.25,3.25,3.31,4.57Z"/>
  <path d="M419.9,154.29l.17-9.12c1.27,2.68,1.98,4.52,2.92,5.68s5.6.6,7.13-.27c2.75-9.56-.64-21.53-9.25-28.93,4.24-1.67,7.35-1.34,10.63.69l-7.66.15c8.65,8.26,13.09,19.56,10.26,31.52l-14.19.28Z"/>
  <path d="M323.28,153.17c.08,1.27-4.17,1.57-5.21.68.64-11.45-.12-23.13,2.51-35.3,2.63,11.97,1.94,22.06,2.7,34.62Z"/>
</svg>