<?xml version="1.0" encoding="UTF-8"?>
<svg id="Layer_1" xmlns="http://www.w3.org/2000/svg" version="1.1" viewBox="0 0 970.86 315.84">
  <!-- Generator: Adobe Illustrator 30.1.0, SVG Export Plug-In . SVG Version: 2.1.1 Build 136)  -->
  <path d="M915.3,229.99l46.43,10.07c-16.38,40.24-52.99,61.74-93.75,68.2-56.76,9-113.13-16.33-133.82-71.55-6.72-17.93-10.37-36.87-9.44-56,1.93-39.95,24.3-74.01,59.49-92.23,20.14-10.43,41.53-14.99,64.36-15.69,70.04,1.09,128.38,53.28,121.78,127.25l-196.32.05c-.71,43.27,36.39,72.93,77.39,68.78,23.84-1.6,55.49-11.91,63.88-38.88ZM927.32,170.08c-3.79-20.38-15.63-34.77-31.25-44.55-13.64-8.34-28.77-11.2-44.86-11.21-21.08,0-41.46,5.86-57.22,19.8-10.6,9.38-18.04,21.09-20,36.04l153.34-.09Z"/>
  <path d="M336.9,180.31h-95.92s-26.91,62.22-26.91,62.22l-53.3-.22L268.01.26l45.52-.26,105.12,242.29-54.57.14-27.18-62.13ZM327.4,156.34l-35.87-85.87-2.01-6.69c-.65,1.76-1.23,3.96-2.1,5.97l-37.64,86.68,77.63-.09Z"/>
  <path d="M599.95,313.83c-29.47,5.16-58.46.42-83.71-14.46-24.57-14.48-43.26-38.94-44.56-68.64l52.74.06c.35,16.79,9,31.66,21.07,40.75,25.77,19.42,64.63,9.93,78.64-16.91,5.81-11.14,3.52-23.93-6.27-31.83-6.02-4.86-13.5-8.16-21.4-9.51l-52.15-8.91c-13.42-2.29-25.53-7.77-36.57-15.14-19.34-12.89-28.19-33.97-25.8-56.78,2.63-25.11,16.74-45.39,40.03-55.6,29.59-12.97,71.73-11.49,101.12,2.77,24.99,12.12,42,35.05,45.46,62.84l-44.89.08c-.54-36.29-46.32-47.13-75.41-38.27-12.95,3.95-21.51,14.48-23.68,27.32-3.9,23.02,17.93,34.28,36.78,37.66,14.43,2.59,28.43,4.98,42.97,6.73,15.03,1.81,28.86,5.42,41.28,13.89,18.75,12.78,27.92,32.92,26.86,55.63-1.88,40.24-34.93,61.73-72.51,68.31Z"/>
  <path d="M149.93,223.42c-14.69,7.47-29.8,11.42-45.95,11.64l-53.29.74-.17,79.83-50.49-.21-.03-235.69,108.2-.23c28.12-.06,53.79,13.5,68.51,37.31,21.13,37.33,14.29,85.73-26.78,106.61ZM126,126.63c-8.44-7.37-19.14-11.99-30.8-12.05l-44.53-.25-.03,86.14,42.58.12c10.24.03,20.11-2.4,28.53-7.66,24.18-15.1,21.84-48.36,4.25-66.3Z"/>
  <polygon points="722.56 144.99 722.34 267.79 674.14 267.86 674.1 59.51 589.02 59.86 588.97 29.75 814.61 29.73 814.66 59.52 722.9 59.86 722.56 144.99"/>
  <rect x="341.46" y="177.3" width="207" height="50.97" transform="translate(241.77 647.57) rotate(-89.95)"/>
  <rect x="419.65" y="44.67" width="50.53" height="34.6" transform="translate(-.08 .56) rotate(-.07)"/>
</svg>