<?xml version="1.0" encoding="UTF-8"?>
<svg id="Layer_1" xmlns="http://www.w3.org/2000/svg" version="1.1" viewBox="0 0 2426.49 429">
  <!-- Generator: Adobe Illustrator 30.1.0, SVG Export Plug-In . SVG Version: 2.1.1 Build 136)  -->
  <defs>
    <style>
      .st0 {
        fill-rule: evenodd;
      }
    </style>
  </defs>
  <path class="st0" d="M386.16,173.48l-179.29-73.31h241.19L461.66,0H142.99C84.72,0,31.44,51.88,33.38,110.33c1.43,42.87,20.84,73.29,60.97,90.01l174.21,72.59H13.79L0,373.83l312.12.73c65.29.16,121.07-35.28,132.12-102.36,8.52-51.78-11.41-79.62-58.08-98.71ZM458.75,374.55h180.01l16.06-129.2h56.57l-16.06,129.2h180.02L921.9,0h-180.01l-16.16,129.93h-56.57L685.31,0h-180.01l-46.55,374.55h0ZM1365.69,198.89c-4.63,40.13-23.89,72.85-49.67,105.25-19.64,24.66-46.81,44.59-74.78,58.79-32.74,16.64-65.21,23.16-101.61,26.13-52.93,4.32-97.36-5.14-140.83-38.47-23.2-17.79-42.27-43.32-51.54-71.14-7.68-23.03-5.14-45.02-2.26-68.23L971.21,0h184.37l-32.75,259.14h47.59L1203.17,0h185.47l-22.94,198.89h0ZM1549.74,374.55h-158.08l28.95-230.82h257.59l6.51-44.28h-258.54L1438.65,0h319.94c124.46,0,126.94,178.26-15.41,208.89l131.98,71.28L1909.43,0h398.05l-9.4,85.65h-213.95l-6.3,51.54h214.58l-10.84,100.89h-216.08l-6.23,50.8h215.73l-9.4,85.65h-401.15l-6.43,54.46-292.81-177.83-15.46,123.38h0ZM2387.84,34.06h-6.67v14.29h6.89c3.9,0,6.69-.54,8.37-1.62,1.7-1.09,2.56-2.84,2.56-5.24,0-2.62-.88-4.51-2.66-5.68-1.74-1.18-4.58-1.75-8.48-1.75h0ZM2389.32,28.78c5.98,0,10.49.99,13.5,2.97,3.01,2,4.54,4.93,4.54,8.87.1,2.77-.81,5.49-2.58,7.63-1.89,2.13-4.46,3.54-7.28,3.99l9.65,19.71h-9.14l-8.82-18.42h-8v18.42h-8.16V28.79h16.29s0-.01,0-.01ZM2421.51,51.48c0-4.62-.8-8.92-2.41-12.96-3.32-8.1-9.73-14.55-17.81-17.94-4.08-1.68-8.45-2.52-12.87-2.49-4.35-.03-8.66.8-12.7,2.43-3.91,1.58-7.45,3.95-10.39,6.96-3.24,3.26-5.75,6.95-7.5,11.04-3.45,7.99-3.49,17.04-.1,25.06,1.67,3.98,4.07,7.55,7.22,10.71,9.35,9.55,23.56,12.47,35.91,7.37,4.01-1.63,7.68-4.05,11-7.21,3.11-3.03,5.5-6.51,7.15-10.45,1.66-3.96,2.49-8.12,2.49-12.52h0ZM2388.28,13.02c10.23-.11,20.06,3.98,27.18,11.32,7.07,7.12,11.03,16.74,11.02,26.77,0,5.21-.96,10.09-2.84,14.66-1.9,4.56-4.72,8.69-8.29,12.11-3.64,3.58-7.93,6.43-12.65,8.39-4.66,1.96-9.47,2.93-14.44,2.93-4.99.02-9.92-.98-14.51-2.93-4.65-1.97-8.85-4.86-12.36-8.5-3.62-3.64-6.36-7.76-8.26-12.32s-2.87-9.34-2.87-14.34.99-9.9,2.98-14.59c1.97-4.7,4.84-8.92,8.56-12.68,3.48-3.57,7.44-6.24,11.93-8.08,4.51-1.82,9.35-2.74,14.53-2.74h0Z"/>
</svg>