<?xml version="1.0" encoding="UTF-8"?>
<svg id="Layer_1" xmlns="http://www.w3.org/2000/svg" version="1.1" viewBox="0 0 320.19 54.75">
  <!-- Generator: Adobe Illustrator 30.1.0, SVG Export Plug-In . SVG Version: 2.1.1 Build 136)  -->
  <path d="M23.32,36.85c8,1.16,15.82-3.44,18.54-11.17,1.11-3.15.72-6.81-1.18-9.53s-4.78-3.91-8.86-4.75l1.82-6.02c5.96.13,11.32,2.44,14.59,6.41,3.95,4.79,4.6,11.09,2.46,16.93-4.56,12.41-17.49,19.22-30.4,17.03l-3.1,8.98c-7.99-1.88-14.54-7.97-16.49-16.26C-4.01,18.42,16.09.02,35.12,0c-.36,2.13-.86,3.89-1.58,5.49-11.46.4-21.68,7.16-25.43,17.78-3.48,9.86,1.8,19.87,12.16,22.08l2.83-8.22c-3.26-1.22-6.13-2.77-7.48-5.21-1.63-2.93-1.78-6.57-.52-9.64,2.73-6.64,9.38-11.02,16.53-10.52l-8.3,25.08Z"/>
  <path d="M167.39,40.03c-2.75.19-6.11.2-8.98.05l-5.89-14.55-5.25,14.62-7.61-.05,8.24-23.24,9.15-.02,5.67,14.3,5.29-14.32,7.54.04-8.17,23.16Z"/>
  <path d="M100.12,39.23c-5.56,2.26-11.67,2.25-16.98.84-3.93-1.04-5.56-4.72-4.79-8.48,1.31-6.43,5.17-11.95,11.49-14.1s21.64-2.93,21.07,6.02c-.43,6.77-4.2,13.03-10.79,15.72ZM101.15,23.03c-2.83-3.37-8.52-1.35-10.91,1.19-2.19,2.32-4.9,7.15-2.2,10.02s7.96,1.3,10.42-.99c2.26-2.09,5.36-7.04,2.68-10.22Z"/>
  <path d="M132.4,39.25c-6.86,2.73-22.63,3.38-21.84-5.98.6-7.14,4.78-13.35,11.48-15.72s21.79-2.96,21.21,5.97c-.44,6.77-4.22,13.09-10.85,15.73ZM133.55,23.07c-2.89-3.41-8.57-1.44-10.99,1.17-2.11,2.29-4.86,7.05-2.23,9.94s8.19,1.39,10.66-1.1c1.98-1.99,5.17-6.93,2.56-10.02Z"/>
  <path d="M223.89,40.23h-8.13s1.41-7.52,1.41-7.52l-9.39-.27-3,7.92-7.66-.32,8.29-23.29,20.94.06c2.26,0,4.33,2.19,4.07,4.41-.4,3.4-2.81,5.91-5.19,7.55.23,1.8.31,3.9-.03,5.46l-1.31,6.01ZM219.12,27.09c1.02-.75,2.64-4.08,1.55-4.39-2.81-.8-6.22-.69-9.21-.47l-1.7,4.86h9.36Z"/>
  <path d="M306.98,25.93l5.99,14.21-10.25.18-3.91-8.99c-4.12.81-5.33,4.08-6.32,8.32-2.25.75-5.47.76-8.19.34l8.18-23.06,7.83-.17-2.61,8.62c11-6.22,9.12-10.23,22.49-8.28l-13.21,8.83Z"/>
  <path d="M265.27,33.87c2.15,3.98,9.47,1.36,11.08-2.34,2.78-.33,5.58-.33,8.78-.15-3.62,9.19-15.71,10.99-24.37,8.82-3.21-.8-5.31-3.73-5.04-6.93.59-6.96,4.61-13.17,11.21-15.67,4.75-1.8,10.14-1.92,15.01-.96,4.42.88,6.6,4.93,5.2,9.21l-7.96-.19c-.58-1.06-1.4-2.71-1.9-3.43-.58-.84-2.91-.87-4.51-.74-4.76.4-10.25,7.26-7.49,12.38Z"/>
  <path d="M245.39,36.51l-9.85.03-2.67,3.63c-2.67.1-5.22.04-8.26-.25l18.24-23.13,9.74.03,1.67,23.33-7.85.18-1.01-3.83ZM245.76,31.56l-.42-8.4-6,8.17,6.42.24Z"/>
  <path d="M186.26,39.86c-2.28.43-5.23.43-8.02.26l6.32-17.77-8.28-.47c.37-1.38,1.22-3.65,2.04-5.16l24.47.06c-.2,1.52-1,3.91-1.81,5.26l-8.4.15-6.31,17.67Z"/>
  <path d="M66.19,39.59c-2.12.88-5.19.8-8.05.45l6.28-17.76-8.37-.35,1.74-5.17,24.93.04c-.42,1.64-1.16,3.79-1.86,5.26l-8.4.06-6.28,17.48Z"/>
</svg>