<?xml version="1.0" encoding="UTF-8"?>
<svg id="Layer_1" xmlns="http://www.w3.org/2000/svg" version="1.1" viewBox="0 0 650 430">
  <!-- Generator: Adobe Illustrator 30.1.0, SVG Export Plug-In . SVG Version: 2.1.1 Build 136)  -->
  <path d="M188,0c8.84,1.91,17.07,7.1,21.39,13.83,5.7,8.88,6.35,18.85,2.34,27.54-6.87,14.86-22.09,21.76-37.7,16.67-13.91-4.53-22.14-17.39-20.45-32.28,1.46-12.93,12.32-22.59,25.42-25.77h9Z"/>
  <polygon points="644.83 416.56 586.67 416.65 586.6 338.13 572.85 338.02 572.81 416.59 514.6 416.6 514.61 258.58 572.82 258.6 572.83 323.09 586.61 323.11 586.64 258.56 644.82 258.62 644.83 416.56"/>
  <rect x="167.23" y="74.82" width="34.97" height="342.02"/>
  <rect x="-18.81" y="308.16" width="158.27" height="59.09" transform="translate(-277.39 397.91) rotate(-89.98)"/>
  <rect x="401.7" y="258.57" width="58.9" height="157.31"/>
  <polygon points="112.57 213.54 103.19 244.95 61.25 244.84 11.46 89.01 71.67 88.99 112.57 213.54"/>
  <rect x="221.19" y="258.56" width="57.69" height="158.26"/>
  <path d="M286.66,244.85c-46.61-5.3-65.24-23.88-69.29-70.24-1.24-14.15-.61-27.97,3.72-41.46,9.5-29.62,35.28-44.01,65.56-43.91l.02,155.61Z"/>
  <path d="M348.8,300c-1.16,30.93-25.07,40.33-52.93,39.81l64.78,76.66-72.33.21v-157.96c11.97-1.24,24.25,0,35.63,3.95,16.69,5.78,25.51,20.09,24.86,37.32Z"/>
  <polygon points="153.6 89.03 118.29 196.82 82.87 89.06 153.6 89.03"/>
  <polygon points="150.34 258.52 150.24 322.44 92.63 258.7 150.34 258.52"/>
  <polygon points="342.06 244.91 288.52 244.88 341.92 181.78 342.06 244.91"/>
  <polygon points="342 88.9 341.8 147.96 289.94 89.08 342 88.9"/>
  <polygon points="501.87 258.59 501.59 330.66 463.46 258.62 501.87 258.59"/>
  <polygon points="360.81 330.7 360.53 258.58 398.88 258.61 360.81 330.7"/>
  <polygon points="129.54 378.33 91.77 345.38 129.46 313.69 129.54 378.33"/>
</svg>