<?xml version="1.0" encoding="UTF-8"?>
<svg id="Layer_1" xmlns="http://www.w3.org/2000/svg" version="1.1" viewBox="0 0 514.28 93.04" fill="white">
  <!-- Generator: Adobe Illustrator 30.1.0, SVG Export Plug-In . SVG Version: 2.1.1 Build 136)  -->
  <path d="M70.08,76.44l6.84,1.82-2.64,11.35-19.89-.44c-2.17-.05-5.75-2.24-6.9-3.82-1.44-1.98-1.8-5.99-1.15-8.82l10.62-46.18-3.66-.85c-.84-.19-.55-2.35-.93-4.62l-28.77,64.28c-7.7.2-14.88.2-23.61-.08L33.4,16.59l-22.88-.4L14.19,0l44.79.42-3.49,16.49c-.26,1.21,4.2,1.39,4.48.32l2.61-10.38,23.51-.04-2.29,11.06,6.1.72-2.64,11.19-6.46.48-10.71,46.19Z"/>
  <path d="M211.97,90.15l-23.78.14,13-56.43c.38-1.64-.2-4.2-1.31-4.65-1.27-.51-4.61,1.36-4.97,2.9l-13.64,58.06-23.68-.2L178.25,1.16l23.63-.12-4.16,19.36c6.68-3.78,13.58-5.8,20.82-3.46,6.21,2.01,8.26,7.67,7.08,13.89l-13.66,59.31Z"/>
  <path d="M131.49,89.64l-23.87.21,13.23-57.04c.38-1.62-1.18-4.46-2.39-4.24s-3.76,1.83-4.09,3.25l-13.62,57.95-23.62-.31L97.73.69l23.61-.1-4.13,19.27c6.65-3.63,13.65-5.7,20.83-3.37,6.12,1.99,8.22,7.5,7.13,13.66l-13.68,59.49Z"/>
  <path d="M483.49,33.37l-13.76,58.42-23.67-.04,16.9-72.83,23.8-.16-.41,4.94c6.51-5.62,15.52-8.52,23.57-3.94,4.22,2.4,5.01,8.27,3.91,13.09l-13.58,59.13-23.76-.2,13.23-57.06c.28-1.21-.39-3.65-1.32-4.01-1.12-.42-4.56,1.21-4.9,2.65Z"/>
  <path d="M283.27,63.35c3.42-11.52,21.85-12.25,31.96-18.25,2.95-2.44,5.94-18.25.12-15.34-.86.43-2.55,1.93-2.84,3.07l-3.47,13.57-21.72-.47c2.08-14.12,6.61-23.59,20.83-27.74,7.88-2.3,16.42-2.14,24.09-.08,8.43,2.26,11.6,9.76,9.76,17.92l-12.4,54.93-21.94.15-1.32-4.33c-5.95,5.6-14.36,7.03-22.03,3.47-8.49-3.94-3.54-18.47-1.04-26.89ZM302.95,77.69c.13,1.1,4.08,1.52,4.66.72.46-.63,1.53-2.06,1.71-2.87l4.23-18.27c-7.62,1.53-11.41,13.32-10.6,20.42Z"/>
  <path d="M256.25,60.13l22.29-.05c-1.02,5.25-1.92,10.09-3.96,14.74-7.3,16.63-28.04,20.43-42.8,14.79-7.04-2.69-10.87-9.87-9.49-17.5,2.18-12.04,4.89-23.82,8.2-35.6,5.23-18.65,26.55-23.57,42.13-18.49,17.03,5.56,9.95,24.98,7.14,37.49l-30.31.11-4.59,20.52c-.27,1.22,2.34,2.89,3.36,2.58s3.64-1.76,3.96-2.98l4.06-15.62ZM259.05,43.11c.75-3.72,1.71-9.11,2.04-12.06.09-.82-3.04-1.93-3.68-1.43s-2.08,1.76-2.32,2.69l-2.73,10.9c2.35.09,4.47.08,6.69-.1Z"/>
  <path d="M424.48,61.18l22.37-.12c-.98,5.17-1.91,10.14-4.01,14.84-8.69,19.48-35.49,20.42-46.75,12.39-4.63-3.3-6.56-9.77-5.46-15.59,2.27-11.93,4.88-23.42,8.11-35,5.33-19.14,27.22-23.89,42.54-18.59,16.52,5.72,9.62,24.61,6.84,37.41l-30.16.04-4.51,18.37c-.31,1.28.49,4.35,1.64,4.62,6.89,1.67,7.37-12.07,9.39-18.38ZM427.43,44.42l2.09-12.19c.13-.78-2.5-2.21-3.23-1.84s-2.53,1.61-2.76,2.51l-2.82,11.06,6.72.46Z"/>
  <polygon points="380.45 18.24 401.5 18.44 373.72 91.36 343.04 90.94 348.22 18.07 369.18 18.08 363.95 69.01 380.45 18.24"/>
</svg>