<?xml version="1.0" encoding="utf-8"?>
<svg version="1.1" id="Layer_1" xmlns="http://www.w3.org/2000/svg" xmlns:xlink="http://www.w3.org/1999/xlink" x="0px" y="0px" viewBox="0 0 207.59 92.7" xml:space="preserve">
<path d="M206.63,24.62a9,9,0,0,0-1.7-.67c-1-.25-2-.48-3.31-.74-.59-.12-1.2-.2-1.78-.29l-.74-.1a2.58,2.58,0,0,0-.39,0h-.39a4.8,4.8,0,0,1-.66,0c-.78-.1-.78-.1-.9-.91,0-.06,0-.12,0-.18-.07-.26-.15-.51-.23-.77a10.16,10.16,0,0,1-.4-1.7,10.63,10.63,0,0,0-.59-2.3l-.14-.46c-.05-.13-.09-.27-.13-.41a8,8,0,0,0-.5-1.34,25,25,0,0,1-1.11-2.46l-.12-.37a2.47,2.47,0,0,0-.46-1,11.46,11.46,0,0,0-1.74-1.51,1.11,1.11,0,0,0-.93-.18,1,1,0,0,0-.69.48c-.18.34-.35.69-.52,1-.26.52-.53,1.06-.83,1.56a4.1,4.1,0,0,0-.35.86c-.07.2-.13.38-.21.56s-.14.27-.2.41a4.41,4.41,0,0,0-.59,1.7.46.46,0,0,1-.06.16l-.41,1c-.27.64-.53,1.28-.78,1.93-.13.34-.25.68-.37,1s-.19.55-.29.82c-.16.44-.33.44-.51.41L184,21.1c-.63-.13-1.27-.25-1.9-.36l-1.34-.22c-.76-.12-1.55-.25-2.31-.41L178,20a2.92,2.92,0,0,1-1.25-.4c0-.11,0-.22,0-.33,0-.35,0-.69,0-1-.07-1.33-.13-2.44-.21-3.49-.06-.78,0-1.58,0-2.36a22.65,22.65,0,0,0,0-2.73,3,3,0,0,1,0-.52V9.08l.18,0a5.66,5.66,0,0,1,.72-.14,1.79,1.79,0,0,1,.4,0,2.33,2.33,0,0,0,.74-.07,6.34,6.34,0,0,1,1.86-.26q.36,0,.72,0c1-.08,2-.1,3-.13l1.21,0,1.26,0c.86,0,1.73-.05,2.59-.1h1.12A8,8,0,0,0,192.72,8l2,0,3,.05h.8l1,0L202.8,8a5.78,5.78,0,0,0,.7-.08l.36,0,.46-.06L204,7.47a1.09,1.09,0,0,0-1-.39h-.41A11.19,11.19,0,0,1,201,7,17.7,17.7,0,0,0,198,6.83l-.6,0a7.39,7.39,0,0,1-1.83-.07,10.54,10.54,0,0,0-1.91-.18l-.49,0c-1.18,0-2.38,0-3.55,0l-.84,0c-.56,0-1.12.06-1.68.09l-1.51.08c-.82,0-1.49,0-2.11,0a4.11,4.11,0,0,0-.86.08,2.06,2.06,0,0,1-1.18,0l-.12-.06-.11.07a2.15,2.15,0,0,1-1.08.17h-.21c-1.11,0-2.26,0-3.23.05-.2,0-.25,0-.27-.23s0-.28,0-.42V6.09l0-.4a2.94,2.94,0,0,1,.15-1.48.58.58,0,0,0,0-.36l-.06-.44c-.11-.83-.22-1.66-.34-2.49a1,1,0,0,0-.37-.75,1.14,1.14,0,0,0-.89-.14l-.12,0-.14,0a.74.74,0,0,0-.75.83c0,.32,0,.64-.05,1s0,.92,0,1.39,0,.89,0,1.34,0,.85,0,1.27A10.84,10.84,0,0,1,173.79,7c0,.12,0,.24,0,.37l-.51,0c-.57,0-1.13.1-1.69.13-.2,0-.41,0-.61,0s-.41,0-.61,0l-1,.06c-.44,0-.88.07-1.32.07a8.44,8.44,0,0,1-1,0l-.28,0L166.53,7c-.17-.54-.34-1-.49-1.57a1.19,1.19,0,0,0-.88-.92l-.09,0-.09,0a1.94,1.94,0,0,0-1.09,1.2,1.23,1.23,0,0,1-.17.28c-.05.07-.11.15-.15.22s-.12.2-.19.3a3.29,3.29,0,0,0-.44.83c-.13.41-.37.57-.95.61-.37,0-.75,0-1.12,0h-1.38c-2,0-4.08,0-6.13-.13-1.24-.09-2.51-.07-3.73,0-.74,0-1.48,0-2.22,0a22.49,22.49,0,0,1-3.15-.2c-.3,0-.6-.1-.89-.16A10.63,10.63,0,0,0,141,7.2a.32.32,0,0,1-.18,0,6.9,6.9,0,0,0-2.69-.37c-.8,0-1.07.31-1.12,1.14a1.25,1.25,0,0,0,1.1,1.39l1,.05c.46,0,.92,0,1.37.08l.75,0a5.22,5.22,0,0,1,1.9.3,5.46,5.46,0,0,0,.85.25,2.49,2.49,0,0,1,.37.09l.42.1a6.63,6.63,0,0,1,.9.25l2.29.91,1.43.58.36.1.33.1.4.19a2.68,2.68,0,0,0-.8,0,5.58,5.58,0,0,0-1.62.51,8.49,8.49,0,0,1-.91.35,2.5,2.5,0,0,0-.95.44,9.43,9.43,0,0,0-2,2.15c-.2.32-.4.65-.61,1-.41.66-.84,1.33-1.22,2a14.87,14.87,0,0,0-.77,1.74l-.14.35a3.17,3.17,0,0,0-.12.49,1.9,1.9,0,0,1-.08.36,7.64,7.64,0,0,0-.43,2.47c0,.11,0,.21,0,.32s0,.2,0,.3a3.51,3.51,0,0,0,.94,2.86l.77.69.07.07h0l-.13,0-.4,0a6.86,6.86,0,0,0-2,.06l-.33-.42c-.31-.4-.62-.79-.94-1.17-.66-.77-1.33-1.53-2-2.29L136.2,24l-1.76-2L133.49,21l-1.16-1.32a5.58,5.58,0,0,1-.38-.47l-.3-.37c-.34-.42-.69-.83-1-1.23s-.45-.52-.69-.76l-.49-.49a9.69,9.69,0,0,1-.78-.79A32.07,32.07,0,0,0,126,13a15.82,15.82,0,0,1-2.16-2.28c-.41-.54-.87-1.15-1.35-1.73l-.21-.27c-.18-.23-.37-.47-.58-.69l-.11-.1a3.84,3.84,0,0,0-1.54-1.13,1.33,1.33,0,0,0-1.22,0,1.32,1.32,0,0,0-.44,1.14,1.7,1.7,0,0,0,.08.46,1.74,1.74,0,0,1,.05.22c.06.34.1.68.15,1l0,.21c0,.2,0,.4.07.6,0,.42.11.85.19,1.28s.16.73.24,1.1a10.64,10.64,0,0,1,.36,1.92,14.65,14.65,0,0,0,.49,2.9c.06.21.11.42.17.63a12.13,12.13,0,0,0,.91,2.66,3.7,3.7,0,0,1,.24.64c.06.19.12.38.19.56l.16.38c.41,1,.82,1.94,1.28,2.89.27.57.58,1.12.91,1.7l.29.51-.66.16c-.74.17-1.44.34-2.16.44l-.5.07a10,10,0,0,0-2.19.44,5.15,5.15,0,0,1-1,.24l-1.58.25c-1.09.17-2.21.34-3.3.58a10.57,10.57,0,0,1-1.68.21,12.29,12.29,0,0,0-1.46.16c-.57.1-1.16.16-1.73.22l-1,.11a2.78,2.78,0,0,1-.5,0,1.7,1.7,0,0,0-1.33.32,4.79,4.79,0,0,0-2.1,0l-.47.08a4,4,0,0,1-.68,0,3.85,3.85,0,0,0-.76,0,4.31,4.31,0,0,1-2.46-.38,3.12,3.12,0,0,1-1.43-1.18l-.4-.65A5.34,5.34,0,0,1,96,27.09a.55.55,0,0,0-.17-.27l0-.06c-.51-.69-.81-.7-1.67-.38l-.27.1.23.46c.08.16.16.33.25.49a1,1,0,0,0,.15.2s.07.1.08.08a2.59,2.59,0,0,0,.49,1.54l.27.48a3.51,3.51,0,0,0,1.2,1.49.62.62,0,0,1,.14.14,1.51,1.51,0,0,0-.38.1,1,1,0,0,1-.73.07,3.07,3.07,0,0,0-1.17,0h-.13a4.51,4.51,0,0,0-.53.1,2.75,2.75,0,0,1-.45.09,4.82,4.82,0,0,1-.54,0,4.28,4.28,0,0,0-.62,0q-.6.06-1.2.15L89.77,32l-.14,0a.47.47,0,0,1,.09-.17c.12-.14.26-.28.39-.42a6.14,6.14,0,0,0,.53-.6A7.35,7.35,0,0,1,92,29.3l.08-.06a.87.87,0,0,0,.38-.42,2.68,2.68,0,0,1,1.16-1.34.62.62,0,0,0,.09-1l-.15-.16-.37.25-.41.29a18.31,18.31,0,0,0-2.67,2.52c-.14.16-.29.32-.44.47a12.68,12.68,0,0,0-1.26,1.47,3,3,0,0,1-2,1.12l-.14,0a6.79,6.79,0,0,1,.5-2.32,28.07,28.07,0,0,0,1-2.69c.23-.69.46-1.41.73-2.09a.61.61,0,0,0,0-.34c0-.16,0-.33-.08-.5s-.08-.42-.11-.63a1.06,1.06,0,0,0-.74-.89,1.38,1.38,0,0,0-.29-.08l-.21,0A1.1,1.1,0,0,0,86,23.1l-.09.07a.91.91,0,0,0-.18,1.2,2.17,2.17,0,0,1,0,1.47c-.06.32-.11.63-.17.94s-.14.81-.22,1.21l-.06.35a4.28,4.28,0,0,1-.85,2.18,4.49,4.49,0,0,1-2.14,1.3,3.27,3.27,0,0,1-3.19-.64.39.39,0,0,1-.12-.2,1.58,1.58,0,0,1,.17-1.16A3.05,3.05,0,0,0,79.86,28a.43.43,0,0,1,0-.25c.09-.11.17-.23.26-.35a5.26,5.26,0,0,1,.86-1A16.12,16.12,0,0,1,83.1,25c.54-.3,1.1-.58,1.64-.85l.71-.35.13-.07v-.16c0-.43,0-.89-.34-1.09a1,1,0,0,0-.94.07,20,20,0,0,0-2.15,1.13l-.6.35a8.27,8.27,0,0,0-1.62,1.1l-.14.13a1.28,1.28,0,0,0-.48.62.68.68,0,0,1-.06.16l-.07-.14a3.24,3.24,0,0,0-1.62-1.84l0-.05a.88.88,0,0,0-.19-.15l-1-.59a2.59,2.59,0,0,0-.38-.17L75.77,23A9.19,9.19,0,0,0,72,21.87H71.9a2.79,2.79,0,0,1-.78-.08.75.75,0,0,0-1,.45l-.17.29.71.19c-.23.22-.45.45-.67.68-.66.68-1.33,1.37-2,2a6.74,6.74,0,0,0-1.41,1.67,1.3,1.3,0,0,1-.16.21l0,0c-.15-.14-.29-.27-.41-.4a2.47,2.47,0,0,1-.21-.27,3.61,3.61,0,0,0-.25-.3l-.89-1L63.44,24c-.16-.18-.31-.38-.46-.57a5.33,5.33,0,0,0-1-1.09,5.93,5.93,0,0,1-1.2-1.2l-.51-.59c-.65-.69-1.26-1.45-1.85-2.19-.27-.33-.53-.66-.8-1a1.21,1.21,0,0,0-.16-.16l-.07-.07-.44-.43c-.34-.34-.69-.7-1-1.05s-.42-.48-.61-.73-.4-.49-.62-.72A14.79,14.79,0,0,0,53.41,13l-.11-.11c-1-.9-2.06-1.83-3.13-2.7-.33-.27-.67-.52-1-.78s-.88-.67-1.3-1a22.09,22.09,0,0,0-2.42-1.79c-1-.62-1.91-1.35-2.82-2.06l-1.08-.83a.35.35,0,0,1-.07-.09.7.7,0,0,0-.26-.25L38.66,2.16l-.8-.37c-.69-.31-1.39-.64-2.1-.93A2.68,2.68,0,0,0,34.62.63a1.3,1.3,0,0,0-.91.42,2.08,2.08,0,0,0-.44,1.53,6.37,6.37,0,0,1,0,.75c0,.16,0,.31,0,.47V4c0,.32,0,.66,0,1a10.89,10.89,0,0,0,.54,2.42l.09.3c.08.27.15.54.21.82s.16.62.25.93.24.72.37,1.07.25.72.36,1.08c.24.75.46,1.51.69,2.26.29,1,.58,2,.89,3,.25.77.52,1.54.79,2.28l.33.94a1.94,1.94,0,0,0,.13.3l.52,1.06c.42.86.84,1.71,1.28,2.56l.19.38c.69,1.34,1.4,2.72,2.17,4a12.16,12.16,0,0,0,1,1.43c.18.22.35.43.51.66a2.9,2.9,0,0,1,.19.29,2.33,2.33,0,0,0,.42.57l.27.25a18.49,18.49,0,0,1,1.82,1.83,53.44,53.44,0,0,0,3.63,4,1.6,1.6,0,0,0,.8.45c.23,0,.31.08.41.24a.67.67,0,0,0,.5.32.66.66,0,0,0,.57-.3l.1-.12-.06-.14c-.05-.12-.09-.24-.13-.37a3,3,0,0,0-.41-.84l-.18-.22A6,6,0,0,0,49.91,35a2.67,2.67,0,0,1-1-1.06c-.08-.12-.15-.24-.23-.35a11.78,11.78,0,0,0-1-1.18l-.54-.57c-.28-.32-.59-.62-.89-.91a10.25,10.25,0,0,1-1.15-1.24l-.23-.29a20.07,20.07,0,0,1-2.42-3.8c-.16-.35-.33-.69-.5-1l-.3-.61-.51-1.07c-.19-.42-.39-.83-.58-1.24s-.27-.56-.41-.83c-.24-.48-.48-1-.7-1.46a4.53,4.53,0,0,1-.2-.59,3.35,3.35,0,0,0-.43-1,2.8,2.8,0,0,1-.37-.89,3.58,3.58,0,0,0-.11-.35c-.21-.66-.42-1.31-.64-2l-.25-.79c-.07-.22-.15-.43-.23-.65a12.92,12.92,0,0,1-.45-1.46,5.15,5.15,0,0,0-.34-1,3.08,3.08,0,0,1-.35-1.43A.32.32,0,0,0,36,9c-.13-.5-.3-1-.46-1.47a14.9,14.9,0,0,1-.65-2.31A5.9,5.9,0,0,1,35,3.39c0-.12,0-.24,0-.36l.32.05c.41,0,.8.11,1.17.19a9.52,9.52,0,0,1,1.14.38l.21.08c.39.14.76.3,1.12.47.56.26,1.11.54,1.69.83a2.14,2.14,0,0,1,.37.23l.51.42c.31.25.63.52,1,.75s.74.48,1.11.71a11.43,11.43,0,0,1,2.59,2,1.08,1.08,0,0,0,.28.22l.11.08.86.61A18.33,18.33,0,0,1,50,11.94a7.79,7.79,0,0,0,.77.65l.37.28.09.08c.15.12.3.24.44.37a2.09,2.09,0,0,1,.22.2,2.16,2.16,0,0,0,.27.25A17.7,17.7,0,0,1,55.23,17a1.3,1.3,0,0,0,.31.31,1.59,1.59,0,0,0,.13.13l.18.18c.18.17.35.35.52.53s.33.39.49.58.43.51.65.75c.36.4.73.79,1.1,1.18.54.58,1.08,1.16,1.61,1.75l.57.66A11.63,11.63,0,0,0,62.66,25a2.41,2.41,0,0,1,.41.43c.07.08.13.16.2.23l1.95,2.16.17.18a3.58,3.58,0,0,1,.26.29.58.58,0,0,1,.11.48,13.73,13.73,0,0,0-.08,2,1.27,1.27,0,0,0,.32.73A3.63,3.63,0,0,0,69.24,33a3.21,3.21,0,0,1,.74,0,.51.51,0,0,1,.26.08c.23.21.45.44.67.67l.18.19.39.39c.3.31.62.63.91,1s.66.78,1,1.18c.17.22.34.44.52.65l.27.35a3.62,3.62,0,0,0,.76.85A5.14,5.14,0,0,1,76,39.62a6.9,6.9,0,0,0,1,1.13A2.64,2.64,0,0,1,77.66,42L78,43a18.55,18.55,0,0,0,1.16,3,23.73,23.73,0,0,0,2.64,4.19,9.15,9.15,0,0,0,.67.71l.44.45.58.66c.33.38.67.77,1,1.12l.12.11a9.09,9.09,0,0,1,2.32,3,2,2,0,0,0,.51.77,2.6,2.6,0,0,1,.63,1.08c0,.13.1.27.16.4a.36.36,0,0,1,0,.11.87.87,0,0,0,.1.25c.17.3.35.59.52.88.3.5.59,1,.88,1.51a13.6,13.6,0,0,1,.63,1.34c.19.44.39.93.61,1.54.61,1.61,1.22,3.22,1.81,4.84.11.29.19.61.28.91,0,.13.07.27.11.4s.16.54.25.81A10.87,10.87,0,0,1,94,72.91c0,.4.12.8.19,1.2s.15.85.21,1.27A23,23,0,0,1,94.29,82,8,8,0,0,1,92.84,86a.91.91,0,0,0-.17.37,1.92,1.92,0,0,1-.92,1.2c-.71.51-1.43,1-2.14,1.5l-.86.59-.09.06s0,0,0,0h0a4.11,4.11,0,0,0-1.06.34,2.47,2.47,0,0,1-1.33.3.44.44,0,0,0-.33.08,2.85,2.85,0,0,1-1.34.37,4.62,4.62,0,0,0-1.19.26c-.55,0-1.11,0-1.64,0a8.56,8.56,0,0,1-2.82-.17.74.74,0,0,0-.42,0l-.72-.79-.24.77a3.77,3.77,0,0,1-1.45-.08l-.5-.08c-.33,0-.68-.13-1-.2s-.88-.19-1.34-.24l-.55,0a9.58,9.58,0,0,1-3-.56,1.19,1.19,0,0,0-.45-.08,10,10,0,0,1-2.13-.4c-.33-.09-.66-.18-1-.25s-.74-.18-1.1-.27l-.51-.13a.42.42,0,0,1-.12,0,11.78,11.78,0,0,0-2-.74,11.66,11.66,0,0,1-2-.73,7.7,7.7,0,0,0-1.27-.45l-.49-.14L58,86.28a7.61,7.61,0,0,1-1.14-.37c-.89-.37-1.79-.78-2.65-1.17L53,84.17A1.08,1.08,0,0,0,52.5,84a1.53,1.53,0,0,1-.81-.39l-.07-.06a.8.8,0,0,1-.13-.13.75.75,0,0,0-.78-.31l-.9-.34c-.76-.29-1.53-.58-2.27-.91a27.86,27.86,0,0,1-2.62-1.39c-.83-.5-1.71-.93-2.56-1.35l-.14-.07-.53-.28a6.58,6.58,0,0,0-1.26-.58,1.33,1.33,0,0,1-.12-.12L40.19,78a1.07,1.07,0,0,1-.16-.14,2.38,2.38,0,0,0-.43-.34c-1-.56-1.84-1-2.65-1.43a13.18,13.18,0,0,0-1.81-.84A4.72,4.72,0,0,1,34,74.55c-.18-.12-.35-.25-.53-.36l-1.35-.87c-.7-.46-1.4-.92-2.12-1.36-.5-.31-1-.64-1.47-1-.72-.49-1.47-1-2.28-1.44l-.13-.08-.6-.45c-.44-.34-.87-.67-1.33-1a3.92,3.92,0,0,0-.53-.29,3,3,0,0,1-.47-.25l-2.51-1.85-1.11-.82-.26-.18L19,64.45l-.7-.55c-.44-.36-.9-.72-1.38-1.06l-.53-.36a6.44,6.44,0,0,1-1.53-1.25,1.15,1.15,0,0,0-.33-.26l-.12-.09c-.17-.12-.35-.23-.53-.34a2.39,2.39,0,0,1-1-.93.43.43,0,0,0-.22-.23,3,3,0,0,1-1-.76,5.81,5.81,0,0,0-.7-.6,12.14,12.14,0,0,1-1.24-1c-.34-.31-.67-.65-1-1l-.64-.64c-.19-.19-.39-.37-.59-.55s-.53-.5-.78-.76-.39-.43-.58-.65a9.31,9.31,0,0,0-1-1,9.14,9.14,0,0,1-.87-.89,9.67,9.67,0,0,0-1.07-1,4.62,4.62,0,0,1-.58-.59l-.13-.15a1.27,1.27,0,0,1,1-.63C4.57,49,5.64,49,6.64,48.93c.49,0,1,0,1.49,0h.44c.84,0,1.69,0,2.53.06.29,0,.57,0,.86,0l1,0,1.56,0,2.05,0c.32,0,.63.05.94.08s.66.06,1,.07h.21a7.23,7.23,0,0,0,1.74-.07,3.44,3.44,0,0,1,1,0,4.1,4.1,0,0,0,.86,0c.18,0,.36-.06.52-.09a2.1,2.1,0,0,1,.53-.09c1-.05,2.09-.09,3.13-.12l3-.12a7.28,7.28,0,0,0,1.48-.19c.42-.09.84-.13,1.28-.18a8.46,8.46,0,0,0,.88-.1c.29,0,.59,0,.9-.07a5.43,5.43,0,0,0,1.58-.22,1.66,1.66,0,0,1,.56,0h.16a8.1,8.1,0,0,0,2.2-.28c.69-.18,1.42-.31,2-.42l1.63-.28c.76-.13,1.53-.26,2.29-.41a3.92,3.92,0,0,0,.59-.15,2.61,2.61,0,0,1,1.29-.14,1.28,1.28,0,0,0,.67-.09l.16,0,1.56-.43,2.58-.7c.49-.13,1-.24,1.49-.36l1.05-.25.09,0a1,1,0,0,0,.58-.29c.12-.16.28-.19.55-.24a1.27,1.27,0,0,0,.72-.28,9.8,9.8,0,0,0,2.06-.59l.38-.13.61-.23a5.66,5.66,0,0,1,1.47-.46,3.06,3.06,0,0,0,1.44-.68l.33-.24.52-.35-.62-.11-.21,0a.61.61,0,0,0-.4,0A1.07,1.07,0,0,0,61,41l-.19.11-.69.21-.48.13-.93.31a11.68,11.68,0,0,1-2,.57,13.37,13.37,0,0,0-2.33.68l-.5.18c-.41.14-.84.29-1.26.4l-1.18.25c-.41.08-.82.16-1.23.26l-.9.23a16.83,16.83,0,0,1-3.19.62.59.59,0,0,0-.21,0,7.43,7.43,0,0,1-1.59.42,9.51,9.51,0,0,0-1.38.32,1.66,1.66,0,0,1-.51.06h-.31l-.35,0c-.3,0-.6,0-.9.09l-1.15.2c-.56.1-1.13.2-1.69.28-1.69.22-3,.35-4.19.44a2.71,2.71,0,0,0-.51.12c-.33.1-.55.15-.77,0l-.14-.1-.14.09a2.8,2.8,0,0,1-1.53.23c-.2,0-.4,0-.6,0a1.93,1.93,0,0,0-.49.08,2.29,2.29,0,0,1-.36.07l-1.62.1-1.06.06-.48,0-.5,0H25l-.72,0-1,.06-.22,0a1.18,1.18,0,0,1-.27,0h-.64c-1.24,0-2.49,0-3.73,0a5.94,5.94,0,0,1-.71-.08l-.41-.06a1.81,1.81,0,0,0-.41,0l-.11,0a3.6,3.6,0,0,1-1.31,0,6.9,6.9,0,0,0-1.36-.08h-.62a3.75,3.75,0,0,0-.68,0,1.7,1.7,0,0,1-1.1-.09.55.55,0,0,0-.35,0H11a3.89,3.89,0,0,1-.6,0c-.44,0-.87-.11-1.31-.18L7.66,47a.88.88,0,0,0-.37.05l-.16,0H7a5,5,0,0,1-.86,0,1.11,1.11,0,0,1-.29-.07A1.53,1.53,0,0,0,5.4,47L4,47.06c-.36,0-.71.06-1.07.07a4.68,4.68,0,0,0-2.1.62A1.52,1.52,0,0,0,0,49.12a2.28,2.28,0,0,0,.82,1.53,2.58,2.58,0,0,1,.6.59A9.38,9.38,0,0,0,3,53l.64.61c.89.91,1.81,1.82,2.71,2.69l1.23,1.2c.33.33.67.66,1,1s.59.5.9.74l.55.45.7.59c.46.4.93.81,1.43,1.18.3.22.58.46.86.7a9.48,9.48,0,0,0,1.85,1.31s.07.07.11.12l.11.13.16.16a3,3,0,0,0,.45.42c.38.28.76.55,1.15.81l.94.66,1.43,1,1.56,1.13c1,.71,1.87,1.32,2.68,1.87.31.22.63.42,1,.62a18,18,0,0,1,1.69,1.16,9.86,9.86,0,0,0,1.27.83,7.67,7.67,0,0,1,1.22.78,12,12,0,0,0,1.72,1.11l.59.34c.36.22.72.42,1.08.63s.83.47,1.24.71c.66.4,1.34.78,2,1.14l.51.28a.08.08,0,0,1,0,0,.5.5,0,0,0,.29.15,2.14,2.14,0,0,1,1,.47,4.4,4.4,0,0,0,.45.3l1.24.74.87.53.41.22a3.64,3.64,0,0,1,.59.33,21.43,21.43,0,0,0,4,2.24l1.19.56c.67.32,1.37.63,2,.93l1.21.54,1.13.54c.73.35,1.49.72,2.26,1,1.15.46,2.33.88,3.47,1.29l1.46.52.49.17,1,.37c.18.07.35.15.53.24a7,7,0,0,0,.73.31c.3.11.62.2.93.29s.82.24,1.21.4a24.06,24.06,0,0,0,4.24,1.13c.69.13,1.38.3,2,.46l.79.19.38.1.54.14.76.14.45.07.55.11c.36.07.73.14,1.1.19s.85.1,1.27.14.7.06,1,.11.54.07.81.12a13.61,13.61,0,0,0,1.43.17c.58,0,1.17,0,1.74,0s1.42,0,2.12,0c.27,0,.54,0,.82,0a13,13,0,0,0,3-.36A14.8,14.8,0,0,0,91.2,89.9l.19-.14c.46-.35.93-.71,1.36-1.11a7.65,7.65,0,0,0,.72-.8c.09-.11.17-.22.26-.32l.18-.19a1.9,1.9,0,0,0,.44-.61c.09-.27.16-.53.24-.8a4.37,4.37,0,0,1,.6-1.53.64.64,0,0,0,.09-.31V84a2.33,2.33,0,0,0,0-.28,2,2,0,0,1,.13-.52,7.41,7.41,0,0,0,.43-2.43v-.14c0-.13,0-.27,0-.41a3.32,3.32,0,0,0,0-1.33.53.53,0,0,1,0-.22,5.82,5.82,0,0,0-.06-2.63c0-.24-.08-.47-.11-.71-.06-.45-.16-.9-.24-1.33l-.12-.57-.09-.52c-.07-.41-.15-.83-.25-1.25a5.2,5.2,0,0,0-.21-.67,4.64,4.64,0,0,1-.24-.84A13.55,13.55,0,0,0,94,68c-.1-.32-.2-.63-.29-1a14.43,14.43,0,0,0-.85-2.12l-.43-1c-.13-.3-.25-.61-.37-.92l-.42-1.05a20.89,20.89,0,0,0-1-2c-.32-.58-.66-1.18-.93-1.79l-.12-.23.21.18c.23.19.46.39.7.57,1.78,1.44,3.71,3,5.73,4.31l.18.12c.62.42,1.27.85,1.94,1.22s1.55.83,2.33,1.24c.63.33,1.27.66,1.89,1s1.11.63,1.66,1l.92.54.42.19.07,0,1.17.48c.85.35,1.72.71,2.54,1.13A25.08,25.08,0,0,0,112,71c.68.25,1.38.51,2.05.82a5.83,5.83,0,0,0,.76.28l.42.14,1,.38c.63.24,1.26.47,1.9.69,1.07.36,2.23.74,3.66,1.19.44.14.88.25,1.33.37l.56.15.81.22c.63.18,1.29.36,1.94.52s1.12.23,1.66.33l.84.15,2.72.54.73.15,1.34.26c.69.13,1.31.25,1.95.33a1.6,1.6,0,0,0,.44,0,1.33,1.33,0,0,1,.34,0l.47.09a13.8,13.8,0,0,0,2.51.36,1.6,1.6,0,0,1,.29,0l.26,0,.36,0c.36.05.74.1,1.11.12,1.1,0,2.3.09,3.64.12a4.79,4.79,0,0,0,.66,0l.58,0,2.59,0,2.29,0a10.56,10.56,0,0,0,1.13,0c1.13-.12,2.26-.26,3.39-.4l.24,0c.77-.1,1.57-.2,2.36-.33s1.67-.32,2.51-.52l.29-.07a11.36,11.36,0,0,0,2-.6,15.51,15.51,0,0,0,1.76-.93l.69-.39a3.64,3.64,0,0,0,2-3v-.15a6.81,6.81,0,0,0-.21-3c-.09-.23-.15-.47-.22-.71a4.61,4.61,0,0,0-.62-1.52.56.56,0,0,1-.07-.16,3.64,3.64,0,0,0-.61-1.39c-.1-.16-.21-.32-.29-.48-.3-.55-.62-1.1-.93-1.62s-.46-.76-.67-1.15a2.9,2.9,0,0,1-.21-.47,2.68,2.68,0,0,0-.42-.78,14.2,14.2,0,0,1-1.18-1.7,15.22,15.22,0,0,0-.89-1.32l-.51-.73c-.14-.2-.26-.41-.39-.62s-.41-.66-.65-1-.62-.79-.94-1.18-.59-.72-.87-1.09c-.51-.66-1-1.35-1.47-2l-.28-.4-.58-.84-.36-.53-.23-.33L154,47.61c-.62-.87-1.25-1.74-1.86-2.62l-1-1.51c-.61-.91-1.24-1.85-1.92-2.73-.29-.38-.56-.78-.82-1.17a14.34,14.34,0,0,0-1.53-2,7.33,7.33,0,0,1-.93-1.29c-.19-.29-.37-.6-.59-.88-.51-.69-1-1.37-1.56-2-.31-.4-.62-.79-.92-1.19l-.33-.41a5.11,5.11,0,0,1-.67-.93,4.49,4.49,0,0,0,2.11-.86,3.39,3.39,0,0,1,2.2-.56c.38,0,.77,0,1.15,0a14.79,14.79,0,0,0,1.49,0l.42,0a7.28,7.28,0,0,0,2.29-.38c.52-.2,1.05-.38,1.57-.56l.34-.11.75-.25c.46-.15.93-.3,1.39-.47a5,5,0,0,0,.69-.37l.35-.21,1.8-.94.09,0v.16c0,.37,0,.72,0,1.07a5.93,5.93,0,0,0,.07.59,3.33,3.33,0,0,1,.07.75,4.46,4.46,0,0,0,.8,2.61l.1.17a1,1,0,0,0,1.28.57l.55-.18a11.6,11.6,0,0,0,1.67-.62,22.67,22.67,0,0,0,3.78-2.28,10.44,10.44,0,0,0,2.28-2.53c.16-.22.33-.43.5-.65a8.13,8.13,0,0,0,.64-.87c.26-.42.49-.86.71-1.29.09-.2.19-.39.29-.58s.18-.34.28-.51h0a1.51,1.51,0,0,1,.28.1c.45.24.9.51,1.33.78a15.47,15.47,0,0,0,2.05,1.11,1.1,1.1,0,0,1,.62.9c0,.14,0,.28,0,.42a5.55,5.55,0,0,0,.24,1.2c.27.79.58,1.59.88,2.36.19.47.37.95.55,1.43a4.57,4.57,0,0,0,2,2.45,1.27,1.27,0,0,0,1.73-.08,4.87,4.87,0,0,0,.66-.78l.07-.09a2.76,2.76,0,0,0,.52-2.23c0-.11-.05-.22-.07-.33s-.05-.21-.07-.31a4.17,4.17,0,0,0-1.23-2.25,16.83,16.83,0,0,0-1.44-1.24l-.19-.15a4.92,4.92,0,0,0-.56-.37l-.41-.28c-.18-.13-.35-.28-.53-.42l-.89-.73-.2-1.78h.16a12.2,12.2,0,0,1,4,1.29l.16.07c.42.19.83.41,1.24.63s.76.41,1.15.59.31.23.25.43a9.11,9.11,0,0,0-.27,1.7,7.12,7.12,0,0,1-.34,1.86.91.91,0,0,0,0,.32c0,.24,0,.49,0,.73,0,.59.05,1.2.12,1.81a6.42,6.42,0,0,0,1.74,3.52,3.32,3.32,0,0,0,1.24.82,4.71,4.71,0,0,1,.67.35,2.51,2.51,0,0,0,1.6.45c.32,0,.65,0,1,0a4.26,4.26,0,0,0,2.57-.46,3.88,3.88,0,0,0,1.56-.51l.5-.23c.69-.29,1.38-.61,2.07-.92l1-.45.19-.07a1,1,0,0,0,.5-.27,2.22,2.22,0,0,1,.91-.61,5.36,5.36,0,0,0,.53-.28,1.93,1.93,0,0,1,1.81-.34.87.87,0,0,0,.81,0,1,1,0,0,0,.34-.86c0-.43.08-.66.26-.81a6.18,6.18,0,0,1,1.19-.84,12.27,12.27,0,0,0,2.84-1.87,2.79,2.79,0,0,0,.91-1.63A2,2,0,0,0,206.63,24.62Zm-22.14-2a1.28,1.28,0,0,1-.17.71l-1.69-.77A7.36,7.36,0,0,1,184.49,22.63Zm20.93,3.93c-.15.18-.28.37-.42.56s-.27.36-.41.53l-.14.19a1,1,0,0,1-.66.52,1.79,1.79,0,0,0-.88.6l-.3.29a.75.75,0,0,0-.16.15,1.24,1.24,0,0,1-.24.19c-.62.34-1.13.6-1.6.82a.7.7,0,0,1-.41,0,8.84,8.84,0,0,1-1-.32,2.49,2.49,0,0,1-.4-.2l-.06,0-1.49-5.78h.34a7.47,7.47,0,0,1,1.26,0c1.44.19,2.85.43,4.19.71a13.9,13.9,0,0,1,2.1.66c.21.07.48.21.53.4S205.57,26.37,205.42,26.56Zm-11.49-4.23a4.52,4.52,0,0,0-.64-.12c-.66-.07-1.34-.16-2-.25l-1.5-.2c-.83-.11-1.66-.21-2.49-.34h-.37a.86.86,0,0,1-.42,0l.92-2.71c.1-.29.2-.58.29-.87.21-.63.43-1.28.67-1.91s.46-1.11.7-1.65c.11-.24.22-.48.32-.72a1.86,1.86,0,0,0,.1-.25c.08-.18.15-.35.24-.51.2-.37.44-.76.72-1.22l.25.41c.27.47.54.92.82,1.37.57.92,1,1.68,1.52,2.39a10.14,10.14,0,0,1,1.37,3.49c.08.34.15.69.23,1,.13.55.25,1.09.36,1.65a3.43,3.43,0,0,1,0,.47v0A2.32,2.32,0,0,1,193.93,22.33ZM187,23a14.35,14.35,0,0,0,1.83.18c.3,0,.59,0,.88.06l.56.08.28.05.23,0,.58.08c.29,0,.58.06.88.11a9.51,9.51,0,0,0,1.43.12,1.81,1.81,0,0,1,.47.12,1.29,1.29,0,0,0,1.06,0s.09.06.1.09a1.6,1.6,0,0,1,.26.5c.14.46.29.91.43,1.36a33.54,33.54,0,0,1,1,3.43l-.09,0c-.28-.12-.56-.24-.83-.38s-.45-.23-.67-.36-.57-.32-.87-.46a3.56,3.56,0,0,0-.62-.23,4.06,4.06,0,0,1-.64-.25,7.28,7.28,0,0,0-.71-.31,3,3,0,0,1-1.13-.62,1,1,0,0,0-.51-.21,1,1,0,0,1-.23-.07l-1-.48c-.39-.19-.77-.39-1.17-.57-.25-.12-.5-.22-.76-.32s-.51-.2-.75-.31-.67-.35-1-.53l-.26-.15.26-1a1.88,1.88,0,0,1,.84,0ZM189,27.21l.46.26c.81.41,1.62.81,2.43,1.19,1.42.68,2.84,1.36,4.27,2a3.86,3.86,0,0,0,.51.2,3.39,3.39,0,0,1,.61.26,8.49,8.49,0,0,1,.83.59l.1.08-.1.06a4.69,4.69,0,0,0-.79.52,5.75,5.75,0,0,1-1.93,1c-.66.23-1.31.53-1.94.82l-1.15.52a6,6,0,0,1-2.77.41L187.7,35a.35.35,0,0,1-.2-.07l-.55-.42a5.89,5.89,0,0,1-1.7-1.67,3.88,3.88,0,0,1-.48-2,33.26,33.26,0,0,1,.19-3.37,10.85,10.85,0,0,1,.29-1.42c0-.13.07-.26.1-.39l.17.06a5.82,5.82,0,0,1,.79.37,6.49,6.49,0,0,0,1.8.75A3,3,0,0,1,189,27.21Zm-8.13,4.62-.2,0a5.51,5.51,0,0,1-.85-.22,1,1,0,0,1-.17-.26l-.09-.17a.34.34,0,0,0-.14-.26,1.61,1.61,0,0,1-.62-1,3.65,3.65,0,0,0-.27-.69,11.46,11.46,0,0,1-.77-1.89,4.68,4.68,0,0,1-.17-.93.68.68,0,0,1,0-.14,4.8,4.8,0,0,1,1.4.94l.52.49c.18.17.35.35.54.51a2.83,2.83,0,0,1,1.08,2.07,6.06,6.06,0,0,1-.17,1.21C180.87,31.57,180.84,31.7,180.82,31.83ZM82,45.41c-.36-.57-.73-1.12-1.1-1.68L80.42,43a2.42,2.42,0,0,0-.34-.45,2.78,2.78,0,0,1-.9-1.94,4.52,4.52,0,0,1,.87-3.27,4.76,4.76,0,0,1,2-1.65,2,2,0,0,0,.41-.25,2.52,2.52,0,0,1,.27-.18,6.09,6.09,0,0,1,2.06-.41l.39,0a1.29,1.29,0,0,1,.25,0l.1,0a1.53,1.53,0,0,0,1.23-.22,2.36,2.36,0,0,1,.68-.23l.18,0,.54-.11A5,5,0,0,0,89.26,34a4.42,4.42,0,0,1,1.4-.34,3.63,3.63,0,0,0,.59-.13,4,4,0,0,1,.47-.11,4.54,4.54,0,0,1,.65,0l.47,0h.24l2.31-.21.9-.1c1.33-.14,2.7-.28,4-.29a42.87,42.87,0,0,0,4.68-.32c1.26-.15,2.53-.33,3.77-.51l1.72-.24,1.06-.14c.75-.09,1.53-.19,2.3-.33s1.24-.28,1.84-.44l.72-.18.19-.08.07,0a11.73,11.73,0,0,0,3.21-.43l1-.22c.57-.11,1.13-.24,1.69-.36l1.22-.26c.42-.09.88-.18,1.33-.23a.62.62,0,0,1,.22.14l.46.43a14.18,14.18,0,0,1,1.29,1.28,20.42,20.42,0,0,0,3.26,2.93l.54.43a23.59,23.59,0,0,0,2.5,1.65,1.11,1.11,0,0,0,1.13.07,1.15,1.15,0,0,0,.47-1.08,7.2,7.2,0,0,0-.12-1c0-.16-.05-.32-.07-.48l0-.19-.2,0c-.68-.08-.77.42-.82.67,0,.08,0,.15,0,.2l-.08,0a1.76,1.76,0,0,1-.83-.5,5.92,5.92,0,0,0-1.09-.91l-.36-.26a4.59,4.59,0,0,0-.51-.35,6.5,6.5,0,0,1-.71-.52c-.91-.82-1.79-1.66-2.6-2.44a2.19,2.19,0,0,1-.27-.39v0a3.66,3.66,0,0,1,.76-.17l.4-.07c.49-.11,1-.2,1.49-.3.78-.14,1.59-.29,2.37-.49A4,4,0,0,0,133.4,27l.47-.26.26-.13-.16-.24a1,1,0,0,0-1.19-.37c-.27.07-.53.15-.79.24s-.63.2-1,.27c-.78.18-1.57.31-2.34.41-.46,0-.94.08-1.4.11l-.91.06a.36.36,0,0,1-.38-.18l-.16-.24A22.58,22.58,0,0,1,124,23.6a12.62,12.62,0,0,1-.47-1.21A11.87,11.87,0,0,0,123,21a15,15,0,0,1-.86-2.41c-.13-.47-.27-.95-.43-1.42a5.51,5.51,0,0,1-.23-1.71,7.47,7.47,0,0,0-.33-1.85l0-.08a8.27,8.27,0,0,1-.22-1.35c0-.21,0-.42-.07-.63a.37.37,0,0,1,0-.11.91.91,0,0,0-.1-.4,1.77,1.77,0,0,1-.16-1l0,0a5.54,5.54,0,0,1,.62.45c.77.7,1.44,1.33,2,1.93s1.08,1.09,1.61,1.64l1.33,1.36c.41.4.89.88,1.41,1.31a15.54,15.54,0,0,1,2.19,2.36,4.89,4.89,0,0,0,.58.62l.34.35.61.65c.71.77,1.45,1.56,2.15,2.35s1.13,1.32,1.69,2l1.15,1.35c.24.28.49.56.74.83a20.16,20.16,0,0,1,1.34,1.57c.14.18.29.35.44.52a3.82,3.82,0,0,1,.71,1,3.87,3.87,0,0,0,.69.93,3.91,3.91,0,0,1,.37.44c.21.27.41.55.61.83l.59.81,1,1.31c.28.35.56.71.83,1.07s.42.55.62.83.48.65.73,1c.11.14.23.27.35.41a4.87,4.87,0,0,1,.35.42c.81,1.09,1.61,2.2,2.4,3.31.21.29.42.59.62.89l.52.78.11.15a8.67,8.67,0,0,0,.75,1,5.09,5.09,0,0,1,.52.76c.11.18.21.36.33.53l.49.66c.25.33.51.68.74,1a30,30,0,0,0,2.92,4,7.6,7.6,0,0,1,.79,1.13l.17.27a36.76,36.76,0,0,0,2.16,3c.53.69,1,1.43,1.49,2.16l.34.52c.6.91,1.31,2,2,3.11.42.69.82,1.38,1.23,2.07s.69,1.18,1,1.76A18.45,18.45,0,0,1,166,69.74a3.86,3.86,0,0,1-.93,3.74,1.75,1.75,0,0,1-.86.65,2.84,2.84,0,0,0-.66.38,3.21,3.21,0,0,1-.41.27,4.82,4.82,0,0,1-.81.28l-.22.07-.55.15a5.5,5.5,0,0,0-1.15.37.66.66,0,0,1-.88-.15l-.18-.2-.19.19a2.31,2.31,0,0,1-1.88.62,8.7,8.7,0,0,0-1.61.16c-.24,0-.49.08-.74.1s-.48,0-.72.06H154a.33.33,0,0,0-.27,0,2.5,2.5,0,0,1-1.51.19,5.1,5.1,0,0,0-1,0,8.63,8.63,0,0,1-1.25,0,9.23,9.23,0,0,0-1.39,0,7.22,7.22,0,0,1-1.23,0c-.25,0-.49,0-.74,0h-.24a14.14,14.14,0,0,1-2.16,0c-.62-.06-1.25-.1-1.86-.13a25.07,25.07,0,0,1-3.34-.36,2.47,2.47,0,0,0-.66,0,2.25,2.25,0,0,1-.45,0c-1.33-.16-2.64-.32-4-.52-.35,0-.69-.13-1-.2a11.93,11.93,0,0,0-1.19-.24,17.46,17.46,0,0,1-1.91-.39,16.11,16.11,0,0,0-2.32-.44,1.51,1.51,0,0,1-.47-.15,3.43,3.43,0,0,0-.45-.16l-1.15-.26c-.54-.12-1.1-.24-1.65-.39s-.86-.28-1.28-.43-.6-.22-.9-.31-.78-.24-1.17-.35l-1.19-.36c-.21-.07-.42-.16-.63-.25l-.58-.23-1.23-.4-1.25-.42a4.32,4.32,0,0,1-.45-.19l-.4-.18-1-.37-1.3-.49c-.25-.1-.5-.22-.75-.34l-.57-.25c-.33-.15-.67-.28-1-.42-.6-.25-1.21-.5-1.8-.78-1-.47-2-1-3-1.49l-.26-.13-2.32-1.24-1-.54a.3.3,0,0,0-.17-.08,3.78,3.78,0,0,1-1.36-.68c-.13-.09-.26-.18-.4-.26-.3-.19-.63-.36-.94-.53a7.42,7.42,0,0,1-.93-.61l-.49-.34-.65-.44c-.56-.37-1.12-.74-1.66-1.12-.13-.09-.25-.2-.37-.3s-.23-.21-.35-.3L93.7,59c-.39-.27-.79-.56-1.17-.85s-.7-.6-1-.9l-.57-.51-.58-.49-.8-.68c-.68-.6-1.34-1.21-2-1.82-.19-.18-.37-.37-.55-.56a5.67,5.67,0,0,1-1.11-1.59,6.09,6.09,0,0,0-.76-1.18c-.15-.2-.3-.4-.44-.61-.29-.45-.56-.9-.83-1.36L83,47.1C82.7,46.53,82.36,46,82,45.41ZM67.84,28.56a1.46,1.46,0,0,1-.22-.3l0-.05.09-.11A7.06,7.06,0,0,1,69,26.63c.27-.2.52-.42.78-.64a7.71,7.71,0,0,1,1.67-1.21A4.52,4.52,0,0,0,73,23.59a.33.33,0,0,1,.23-.06,1.55,1.55,0,0,1,.66.16c.33.17.68.32,1,.46a8.39,8.39,0,0,1,1.49.77,5.05,5.05,0,0,1,1.56,2,1,1,0,0,1,.08.61,15.46,15.46,0,0,1-.55,1.85.56.56,0,0,1-.27.28l-1,.49-.69.32-.43.24a4.24,4.24,0,0,1-.64.32,11,11,0,0,1-2.76.53h-.09a1.69,1.69,0,0,1-1.78-.76,19.87,19.87,0,0,0-1.33-1.54C68.28,29,68.05,28.81,67.84,28.56Zm9.62,2.66a3,3,0,0,0,2.93,2.06h.06a6.68,6.68,0,0,0,3.08-.6,7.5,7.5,0,0,1,1-.42l.16,0c0,.2,0,.39,0,.54a.53.53,0,0,1-.18.12l-.1.06c-.45.22-.91.46-1.37.64a2.12,2.12,0,0,1-.45.12,2.7,2.7,0,0,0-.6.17,7.29,7.29,0,0,0-.78.42,7.32,7.32,0,0,1-.88.45A4.64,4.64,0,0,0,78.19,37l0,.07a8,8,0,0,0-.64,1.73c0,.14-.08.29-.13.44l-.25-.33c-.4-.51-.76-1-1.13-1.45l-.31-.39a7,7,0,0,0-1.45-1.54,2.47,2.47,0,0,1-.5-.59,4.57,4.57,0,0,0-.38-.49c-.28-.31-.58-.61-.87-.9L71.9,33l-.05-.07A13.49,13.49,0,0,0,77.46,31.22Zm-8.57.44a6.19,6.19,0,0,1-1-.54l-.09-.06a1.12,1.12,0,0,1-.44-.74,1.66,1.66,0,0,0-.06-.21,5.15,5.15,0,0,1,.67.65,9.08,9.08,0,0,0,.89.86Zm81.59-17.4a1.16,1.16,0,0,1,1.11.64c.19.59.36,1.2.52,1.79.06.22.12.45.18.66s0,.21,0,.3-.06.39-.1.57l-.16.67c-.17.7-.34,1.43-.56,2.12A8.37,8.37,0,0,1,149,24.59c-.52.49-1.21,1.12-2,1.71a10,10,0,0,1-1.69,1.15,2.13,2.13,0,0,1-1.12.17,1.89,1.89,0,0,1-1-.67,3.08,3.08,0,0,1-1-2.63,8.42,8.42,0,0,1,.6-2.59l.53-1.17c.23-.53.47-1.08.73-1.61a3.56,3.56,0,0,1,.48-.66c.11-.13.22-.26.32-.4s.19-.27.28-.41a5.78,5.78,0,0,1,.33-.48,6.85,6.85,0,0,1,3.09-2.11l.51-.21a5.33,5.33,0,0,1,1.14-.4Zm24.88,8.84v0a8.84,8.84,0,0,1-2-1.1c-.36-.25-.73-.51-1.12-.73.08-.2.15-.4.22-.6a11,11,0,0,1,.71-1.67,5.62,5.62,0,0,0,.56-1.71,7.51,7.51,0,0,1,.29-1.11,11.28,11.28,0,0,0,.54-2.13c.08-.4.16-.81.26-1.21,0,.6,0,1.21.07,1.81l.07,1.7c0,1,.08,2,.11,3v.06a1.68,1.68,0,0,1-.06.69,1.05,1.05,0,0,0,.09,1.12,1.57,1.57,0,0,1,.23,1.09A4.54,4.54,0,0,0,175.36,23.1Zm-14.71-1a9.79,9.79,0,0,1,.32-1.81c.21-.69.38-1.4.55-2.15,0-.24.11-.49.17-.74l2,1.09a15.17,15.17,0,0,1-3.1,4.14Zm4.81-9.33c0,.12,0,.24-.05.36a3,3,0,0,0-.06.51,4.77,4.77,0,0,1-.42,1.73,10.88,10.88,0,0,0-.38,1c-.07.21-.14.42-.22.62a1.24,1.24,0,0,1-.1.2l-.47-.21-1.61-.73c-.17-.08-.19-.14-.15-.28s.13-.43.18-.65.14-.51.22-.77c.34-1.07.67-2.06,1-3a7.32,7.32,0,0,1,.49-1.15l0-.06c.18-.34.3-.51.54-.51h.09a.63.63,0,0,0,.35-.06l.1,0c.18-.05.24,0,.24-.05a.78.78,0,0,1,.08.22A7.92,7.92,0,0,1,165.46,12.73Zm-3.73-1.31a5.32,5.32,0,0,0-.22.78c0,.16-.07.33-.12.49-.11.35-.22.7-.34,1s-.13.4-.2.6-.19.59-.29.9l0,.14a1.23,1.23,0,0,1-.25-.08l-2-1.15-.94-.55a.91.91,0,0,0-.33-.13,5.14,5.14,0,0,1-1.85-.66c-.34-.16-.68-.34-1-.47-.82-.31-1.44-.55-2-.79L150.86,11l-1.24-.53c-.22-.09-.43-.19-.64-.3s-.62-.3-1-.42H162A3,3,0,0,1,161.73,11.42ZM160,26.75a11.57,11.57,0,0,1,.43-1.71l.13-.44s0-.11.23-.26a16.64,16.64,0,0,0,3.33-3.77c.23-.32.44-.64.67-1l.27-.41a21.55,21.55,0,0,1,3.56,1.69,3.62,3.62,0,0,0,.67.3,2.15,2.15,0,0,1,.94.57c-.75,1.18-1.61,2.55-2.52,3.86a9.57,9.57,0,0,1-1.29,1.4c-.3.29-.62.59-.9.91A4.57,4.57,0,0,1,163.89,29l-.43.21a5.31,5.31,0,0,1-.73.3,3.8,3.8,0,0,0-1.51.85s-.21.06-.24.07l0-.05c-.26-.22-.58-.49-.63-.73s-.07-.37-.11-.55A6.93,6.93,0,0,1,160,26.75Zm10.36-6.51-.78-.37-1.19-.57-2-1.06-.73-.39a1.34,1.34,0,0,1,.19-.72,2,2,0,0,0,.24-.74.67.67,0,0,1,.13-.34,4.36,4.36,0,0,0,.67-2.71c0-.19,0-.38,0-.57,0-.54,0-1.1,0-1.63,0-.27,0-.53,0-.8a3.59,3.59,0,0,1,0-.47c0-.19.09-.28.36-.3l2.47-.21,2.41-.2a9,9,0,0,1,1.27,0,.32.32,0,0,1,.19.06.29.29,0,0,1,0,.18c-.12.89-.23,1.79-.34,2.68l-.09.69c0,.19,0,.38-.07.58,0,.38-.08.76-.14,1.14a2.24,2.24,0,0,1-.15.46l-.09.25c-.1.3-.2.6-.31.9a21.67,21.67,0,0,0-.67,2.16,4.8,4.8,0,0,1-.51,1.19c-.11.2-.21.39-.3.59s-.19.31-.23.33S170.53,20.34,170.32,20.24Zm-12.73-4.72,1.14.49c.31.12.62.25.92.39a4,4,0,0,1,.5.26l.08,0-.15.69c-.13.63-.26,1.23-.39,1.83-.06.32-.14.64-.21,1-.13.56-.25,1.11-.36,1.67-.08.4-.14.8-.2,1.21s-.09.6-.14.89a.37.37,0,0,1-.12.22,14.86,14.86,0,0,1-2.25,1.53l-.77.47a3.74,3.74,0,0,1-.42.18l-.68.24-.75.28-.49.2a6.65,6.65,0,0,1-.91.33c-.35.09-.72.16-1.08.23a14.62,14.62,0,0,0-1.56.36,4.69,4.69,0,0,1-1.87.13l-.52,0,.12-.11c.35-.32.73-.63,1.1-.92s.71-.58,1.06-.89a16.84,16.84,0,0,0,2.48-2.92,4.82,4.82,0,0,0,.76-1.41c.24-.79.42-1.6.59-2.39l.14-.59a1.84,1.84,0,0,1,0-.25,2.87,2.87,0,0,0,.14-1.05l-.06-.53a6.33,6.33,0,0,0-.56-2.45,3.68,3.68,0,0,1-.15-.35,1.94,1.94,0,0,0-.48-.79,3.34,3.34,0,0,0-.48-.36,39.48,39.48,0,0,1,4,1.7Z"/></svg>